<svg width="252" height="159" viewBox="0 0 252 159" fill="none" xmlns="http://www.w3.org/2000/svg">
<g clip-path="url(#clip0_510_1400)">
<path d="M2.83154 138.802L3.52063 132.542L6.97999 101.115L7.20371 99.0829L9.08404 98.2796L53.7562 79.1966L13.853 60.0091L11.6197 58.9352L11.8907 56.472L15.3033 25.4621L15.8716 20.2981L20.444 22.7646L101.385 66.4268L103.46 67.5464L103.202 69.8905L100.991 89.9579L100.778 91.8911L99.0238 92.7312L8.51146 136.082L2.83154 138.802Z" fill="#F1FBC7"/>
<path d="M18.7823 25.845L15.3697 56.8548L62.2247 79.385L10.459 101.498L6.99962 132.925L97.512 89.5746L99.7229 69.5072L18.7823 25.845ZM18.7823 18.845C19.9258 18.845 21.0689 19.1249 22.1056 19.6842L103.046 63.3464C105.555 64.7 106.993 67.44 106.681 70.2738L104.47 90.3411C104.205 92.7456 102.717 94.8429 100.536 95.8878L10.0233 139.238C7.73089 140.336 5.02344 140.105 2.95014 138.635C0.876847 137.164 -0.236465 134.686 0.0416421 132.159L3.50102 100.732C3.77745 98.221 5.38574 96.0535 7.70914 95.061L45.2878 79.0082L12.3363 63.1633C9.65995 61.8764 8.08692 59.0409 8.41174 56.0891L11.8243 25.0793C12.079 22.7648 13.4679 20.7285 15.5297 19.6465C16.5484 19.112 17.6655 18.845 18.7823 18.845Z" fill="black"/>
<path d="M204.38 121.341C203.986 121.447 203.603 121.369 203.208 121.104L185.885 109.484C183.847 108.116 181.318 107.697 178.948 108.332C176.577 108.968 174.598 110.596 173.517 112.8L164.331 131.528C164.121 131.955 163.828 132.214 163.434 132.32C162.984 132.44 162.445 132.344 162.062 132.075C161.717 131.833 161.53 131.479 161.489 130.993L159.735 110.147C159.53 107.706 158.281 105.472 156.31 104.018C154.338 102.564 151.836 102.031 149.443 102.556L129.046 107.029C128.077 107.242 127.598 106.642 127.399 106.266C127.199 105.889 126.973 105.156 127.693 104.474L142.886 90.0997C144.664 88.418 145.63 86.0511 145.539 83.6059C145.447 81.1607 144.306 78.8729 142.407 77.3291L126.167 64.1226C125.692 63.7359 125.512 63.254 125.632 62.6904C125.727 62.2439 126.056 61.6642 126.67 61.4997C126.863 61.4478 127.084 61.4391 127.326 61.4736L147.974 64.4201C149.12 64.5837 150.265 64.5156 151.375 64.2179C153.129 63.7478 154.717 62.7021 155.847 61.2736C157.028 59.7799 157.661 57.9807 157.675 56.0706L157.838 35.184C157.846 34.1906 158.538 33.8571 158.95 33.7467C159.362 33.6362 160.128 33.5788 160.631 34.4351L171.221 52.4387C172.19 54.0851 173.637 55.3266 175.408 56.0288C177.101 56.7005 178.999 56.8115 180.753 56.3413C181.863 56.0436 182.888 55.53 183.799 54.8148L200.203 41.934C200.395 41.7831 200.591 41.6803 200.784 41.6284C201.398 41.4639 201.973 41.8013 202.279 42.1401C202.665 42.5679 202.75 43.0753 202.531 43.6482L195.077 63.2076C194.205 65.4941 194.361 68.046 195.505 70.2091C196.649 72.3722 198.67 73.9379 201.051 74.5049L221.397 79.3507C222.362 79.5805 222.532 80.3288 222.548 80.7544C222.564 81.1799 222.449 81.9388 221.504 82.2396L201.605 88.5706C199.271 89.3133 197.37 91.0269 196.391 93.272C195.411 95.5171 195.448 98.0759 196.491 100.292L205.401 119.219C205.608 119.66 205.623 120.06 205.446 120.442C205.249 120.868 204.83 121.221 204.38 121.341Z" fill="#F1FBC7"/>
<path d="M161.282 42.4455L161.176 56.0978C161.134 61.4766 157.476 66.206 152.281 67.5989C150.712 68.0197 149.096 68.1161 147.479 67.8853L133.803 65.8207L144.616 74.6133C147.296 76.7928 148.907 80.0227 149.037 83.4747C149.166 86.9268 147.801 90.2682 145.292 92.6423L135.33 102.067L148.693 99.1369C152.071 98.3961 155.604 99.1485 158.387 101.201C161.171 103.254 162.933 106.407 163.223 109.853L164.371 123.497L170.374 111.258C171.9 108.147 174.694 105.849 178.041 104.951C181.388 104.054 184.957 104.646 187.835 106.577L199.155 114.171L193.324 101.783C191.851 98.6542 191.799 95.0418 193.182 91.8722C194.565 88.7026 197.248 86.2833 200.544 85.2349L213.58 81.0873L200.24 77.91C196.879 77.1096 194.026 74.8992 192.411 71.8454C190.796 68.7916 190.575 65.1888 191.806 61.9609L196.691 49.1418L185.96 57.5679C184.676 58.5766 183.228 59.3015 181.659 59.7223C176.464 61.1151 170.931 58.8498 168.204 54.2134L161.282 42.4455ZM158.043 30.3656C160.044 29.8291 162.362 30.4735 163.648 32.6603L174.238 50.6639C175.773 53.2731 179.256 53.9312 181.637 52.0616L198.041 39.1808C202.029 36.0496 207.608 40.157 205.802 44.8948L198.347 64.4542C197.272 67.276 198.924 70.4 201.862 71.0996L222.208 75.9455C227.138 77.1196 227.395 84.0387 222.565 85.5752L202.666 91.9062C199.785 92.8228 198.37 96.0661 199.658 98.8013L208.568 117.728C210.728 122.318 205.47 126.837 201.258 124.011L183.935 112.391C181.419 110.703 177.993 111.622 176.659 114.341L167.473 133.069C165.239 137.624 158.426 136.341 158.001 131.286L156.247 110.44C155.993 107.428 153.145 105.328 150.193 105.975L129.795 110.448C124.845 111.534 121.606 105.414 125.288 101.931L140.48 87.5569C142.674 85.4815 142.541 81.9501 140.199 80.0448L123.959 66.8383C120.025 63.6394 122.801 57.2919 127.82 58.0082L148.468 60.9547C151.465 61.3823 154.151 59.0703 154.175 56.0432L154.338 35.1566C154.358 32.6196 156.042 30.9021 158.043 30.3656Z" fill="black"/>
</g>
<defs>
<clipPath id="clip0_510_1400">
<rect width="251.613" height="158.769" fill="white"/>
</clipPath>
</defs>
</svg>
