<svg width="429" height="96" viewBox="0 0 429 96" fill="none" xmlns="http://www.w3.org/2000/svg">
<rect y="0.248535" width="428.034" height="95.5943" rx="28.5356" fill="white"/>
<mask id="mask0_7_24261" style="mask-type:luminance" maskUnits="userSpaceOnUse" x="0" y="0" width="429" height="96">
<rect y="0.248535" width="428.034" height="95.5943" rx="28.5356" fill="white"/>
</mask>
<g mask="url(#mask0_7_24261)">
<path opacity="0.1" fill-rule="evenodd" clip-rule="evenodd" d="M47.0838 74.4413C61.2676 74.4413 72.7658 62.943 72.7658 48.7592C72.7658 34.5754 61.2676 23.0771 47.0838 23.0771C32.9 23.0771 21.4017 34.5754 21.4017 48.7592C21.4017 62.943 32.9 74.4413 47.0838 74.4413Z" stroke="#0062FF" stroke-width="2.20132"/>
<path fill-rule="evenodd" clip-rule="evenodd" d="M54.434 42.7219C55.7848 44.3643 56.5958 46.4673 56.5958 48.7598C56.5958 54.0131 52.3372 58.2717 47.0839 58.2717C41.8306 58.2717 37.572 54.0131 37.572 48.7598C37.572 43.5066 41.8306 39.248 47.0839 39.248C49.3595 39.248 51.4485 40.0471 53.0855 41.38L53.6095 40.8561L53.8585 39.5298C53.9554 39.0135 54.4525 38.6735 54.9688 38.7704C55.4851 38.8673 55.8251 39.3645 55.7282 39.8808L55.6739 40.1699L55.963 40.1156C56.4793 40.0187 56.9764 40.3586 57.0734 40.8749C57.1703 41.3912 56.8303 41.8884 56.314 41.9853L54.9063 42.2496L54.434 42.7219ZM51.7315 42.734C50.446 41.7411 48.8339 41.1503 47.0839 41.1503C42.8813 41.1503 39.4744 44.5572 39.4744 48.7598C39.4744 52.9624 42.8813 56.3693 47.0839 56.3693C51.2865 56.3693 54.6934 52.9624 54.6934 48.7598C54.6934 46.9929 54.0912 45.3666 53.0808 44.0751L51.7221 45.4337C52.3949 46.3702 52.791 47.5188 52.791 48.7598C52.791 51.9118 50.2359 54.4669 47.0839 54.4669C43.9319 54.4669 41.3768 51.9118 41.3768 48.7598C41.3768 45.6079 43.9319 43.0527 47.0839 43.0527C48.308 43.0527 49.4421 43.4381 50.3714 44.0941L51.7315 42.734ZM48.9959 45.4697C48.4341 45.1425 47.7809 44.9551 47.0839 44.9551C44.9826 44.9551 43.2791 46.6585 43.2791 48.7598C43.2791 50.8611 44.9826 52.5646 47.0839 52.5646C49.1852 52.5646 50.8886 50.8611 50.8886 48.7598C50.8886 48.0456 50.6919 47.3774 50.3495 46.8064L48.9147 48.2412C48.9613 48.4061 48.9863 48.58 48.9863 48.7598C48.9863 49.8105 48.1345 50.6622 47.0839 50.6622C46.0332 50.6622 45.1815 49.8105 45.1815 48.7598C45.1815 47.7092 46.0332 46.8575 47.0839 46.8575C47.2449 46.8575 47.4012 46.8774 47.5505 46.9151L48.9959 45.4697Z" fill="#0062FF"/>
<path d="M21.4017 48.7592C21.4017 62.943 32.9 74.4413 47.0838 74.4413V74.4413C61.2676 74.4413 72.7658 62.943 72.7658 48.7592C72.7658 34.5754 61.2676 23.0771 47.0838 23.0771" stroke="#0062FF" stroke-width="2.20132" stroke-linecap="round" stroke-linejoin="round"/>
<path d="M86.5107 42.2758C85.8155 42.271 85.1369 42.1504 84.4749 41.914C83.8128 41.6728 83.217 41.2827 82.6874 40.7436C82.1577 40.1998 81.7368 39.4786 81.4247 38.5801C81.1126 37.6769 80.9589 36.5585 80.9637 35.225C80.9637 33.9812 81.0961 32.8723 81.3609 31.8982C81.6257 30.924 82.0064 30.1012 82.5029 29.4297C82.9995 28.7534 83.5977 28.238 84.2975 27.8833C85.0022 27.5286 85.7895 27.3513 86.6596 27.3513C87.5723 27.3513 88.381 27.531 89.0856 27.8904C89.7949 28.2498 90.3671 28.7416 90.8022 29.3658C91.2372 29.9853 91.5068 30.6852 91.6108 31.4655H89.0217C88.8893 30.9075 88.6174 30.4629 88.206 30.1319C87.7993 29.7962 87.2839 29.6283 86.6596 29.6283C85.6524 29.6283 84.8768 30.0657 84.333 30.9406C83.7939 31.8154 83.522 33.0165 83.5173 34.544H83.6166C83.8483 34.1278 84.1486 33.7708 84.5174 33.4729C84.8863 33.175 85.3024 32.9456 85.7659 32.7848C86.234 32.6193 86.7282 32.5366 87.2484 32.5366C88.0996 32.5366 88.8633 32.7399 89.5395 33.1466C90.2205 33.5533 90.7596 34.1137 91.1568 34.8277C91.5541 35.5371 91.7503 36.3504 91.7456 37.2678C91.7503 38.2231 91.5328 39.0814 91.093 39.8427C90.6532 40.5994 90.0408 41.1952 89.2558 41.6303C88.4708 42.0653 87.5558 42.2805 86.5107 42.2758ZM86.4965 40.1478C87.0119 40.1478 87.473 40.0224 87.8797 39.7718C88.2864 39.5212 88.608 39.1831 88.8444 38.7575C89.0808 38.3318 89.1967 37.8542 89.192 37.3246C89.1967 36.8044 89.0832 36.3339 88.8515 35.913C88.6245 35.4921 88.31 35.1587 87.9081 34.9128C87.5061 34.6669 87.0474 34.544 86.532 34.544C86.1489 34.544 85.7919 34.6173 85.4609 34.7639C85.1298 34.9105 84.8414 35.1138 84.5955 35.3739C84.3496 35.6293 84.1557 35.9272 84.0138 36.2677C83.8767 36.6034 83.8057 36.9628 83.801 37.3459C83.8057 37.8519 83.924 38.3177 84.1557 38.7433C84.3874 39.1689 84.7066 39.5093 85.1133 39.7647C85.52 40.0201 85.981 40.1478 86.4965 40.1478ZM99.4995 42.2758C98.478 42.2758 97.5701 42.1008 96.7756 41.7509C95.9859 41.4009 95.3617 40.9138 94.9029 40.2896C94.4442 39.6654 94.2007 38.9442 94.1723 38.1261H96.8394C96.8631 38.5186 96.9931 38.8615 97.2296 39.1547C97.466 39.4431 97.7805 39.6678 98.173 39.8285C98.5655 39.9893 99.0053 40.0697 99.4924 40.0697C100.013 40.0697 100.474 39.9799 100.876 39.8002C101.278 39.6157 101.592 39.3604 101.819 39.0341C102.046 38.7078 102.157 38.3318 102.152 37.9062C102.157 37.4665 102.044 37.0787 101.812 36.7429C101.58 36.4072 101.244 36.1447 100.805 35.9556C100.37 35.7664 99.8447 35.6718 99.2299 35.6718H97.946V33.6431H99.2299C99.7359 33.6431 100.178 33.5556 100.556 33.3807C100.939 33.2057 101.24 32.9598 101.457 32.643C101.675 32.3214 101.781 31.9502 101.776 31.5293C101.781 31.1179 101.689 30.7609 101.5 30.4582C101.315 30.1508 101.053 29.912 100.712 29.7418C100.377 29.5715 99.9818 29.4864 99.5278 29.4864C99.0833 29.4864 98.6719 29.5668 98.2936 29.7276C97.9153 29.8884 97.6103 30.1177 97.3785 30.4156C97.1468 30.7088 97.0239 31.0588 97.0097 31.4655H94.4773C94.4963 30.6521 94.7303 29.938 95.1796 29.3233C95.6336 28.7038 96.2389 28.2214 96.9955 27.8762C97.7521 27.5263 98.601 27.3513 99.542 27.3513C100.511 27.3513 101.353 27.5334 102.067 27.8975C102.786 28.2569 103.342 28.7416 103.734 29.3516C104.127 29.9617 104.323 30.6355 104.323 31.3733C104.328 32.1914 104.086 32.877 103.599 33.4303C103.117 33.9836 102.483 34.3454 101.698 34.5156V34.6291C102.72 34.771 103.502 35.1493 104.046 35.764C104.595 36.3741 104.867 37.1331 104.862 38.041C104.862 38.8544 104.63 39.5826 104.167 40.2258C103.708 40.8642 103.075 41.3654 102.266 41.7296C101.462 42.0937 100.54 42.2758 99.4995 42.2758ZM115.207 39.3533V38.5872C115.207 38.0245 115.325 37.5067 115.561 37.0338C115.803 36.5609 116.153 36.1802 116.611 35.8917C117.07 35.6033 117.626 35.459 118.278 35.459C118.95 35.459 119.512 35.6033 119.966 35.8917C120.42 36.1755 120.763 36.5538 120.995 37.0267C121.231 37.4996 121.35 38.0197 121.35 38.5872V39.3533C121.35 39.916 121.231 40.4339 120.995 40.9067C120.759 41.3796 120.411 41.7603 119.952 42.0488C119.498 42.3372 118.94 42.4815 118.278 42.4815C117.616 42.4815 117.056 42.3372 116.597 42.0488C116.138 41.7603 115.791 41.3796 115.554 40.9067C115.323 40.4339 115.207 39.916 115.207 39.3533ZM117.058 38.5872V39.3533C117.058 39.7269 117.148 40.0697 117.328 40.3818C117.507 40.6939 117.824 40.85 118.278 40.85C118.737 40.85 119.051 40.6963 119.222 40.3889C119.397 40.0768 119.484 39.7316 119.484 39.3533V38.5872C119.484 38.2089 119.401 37.8637 119.236 37.5516C119.07 37.2347 118.751 37.0763 118.278 37.0763C117.834 37.0763 117.519 37.2347 117.335 37.5516C117.15 37.8637 117.058 38.2089 117.058 38.5872ZM107.823 31.0399V30.2738C107.823 29.7063 107.943 29.1861 108.184 28.7132C108.425 28.2403 108.775 27.862 109.234 27.5783C109.693 27.2898 110.248 27.1456 110.901 27.1456C111.568 27.1456 112.128 27.2898 112.582 27.5783C113.041 27.862 113.386 28.2403 113.618 28.7132C113.85 29.1861 113.965 29.7063 113.965 30.2738V31.0399C113.965 31.6073 113.847 32.1275 113.611 32.6004C113.379 33.0686 113.034 33.4445 112.575 33.7283C112.116 34.012 111.558 34.1539 110.901 34.1539C110.234 34.1539 109.672 34.012 109.213 33.7283C108.759 33.4445 108.414 33.0662 108.177 32.5933C107.941 32.1204 107.823 31.6026 107.823 31.0399ZM109.688 30.2738V31.0399C109.688 31.4182 109.776 31.7634 109.951 32.0755C110.13 32.3829 110.447 32.5366 110.901 32.5366C111.355 32.5366 111.667 32.3829 111.837 32.0755C112.012 31.7634 112.1 31.4182 112.1 31.0399V30.2738C112.1 29.8955 112.017 29.5503 111.852 29.2381C111.686 28.9213 111.369 28.7629 110.901 28.7629C110.452 28.7629 110.137 28.9213 109.958 29.2381C109.778 29.555 109.688 29.9002 109.688 30.2738ZM108.631 42.0771L118.619 27.5499H120.392L110.405 42.0771H108.631Z" fill="#171725"/>
<path d="M81.2819 70.8931V59.4788H82.664V64.5617H88.7502V59.4788H90.1324V70.8931H88.7502V65.7879H82.664V70.8931H81.2819ZM92.8333 70.8931V62.3324H94.1486V70.8931H92.8333ZM93.5021 60.9056C93.2457 60.9056 93.0246 60.8183 92.8389 60.6437C92.6568 60.469 92.5658 60.2591 92.5658 60.0139C92.5658 59.7686 92.6568 59.5587 92.8389 59.3841C93.0246 59.2094 93.2457 59.1221 93.5021 59.1221C93.7585 59.1221 93.9777 59.2094 94.1597 59.3841C94.3455 59.5587 94.4384 59.7686 94.4384 60.0139C94.4384 60.2591 94.3455 60.469 94.1597 60.6437C93.9777 60.8183 93.7585 60.9056 93.5021 60.9056ZM100.393 62.3324V63.4471H95.9564V62.3324H100.393ZM97.2494 60.2814H98.5647V68.4408C98.5647 68.8123 98.6186 69.091 98.7264 69.2768C98.8378 69.4589 98.979 69.5815 99.1499 69.6446C99.3246 69.7041 99.5085 69.7338 99.7017 69.7338C99.8466 69.7338 99.9655 69.7264 100.058 69.7115C100.151 69.6929 100.226 69.6781 100.281 69.6669L100.549 70.8485C100.46 70.8819 100.335 70.9154 100.175 70.9488C100.016 70.986 99.8132 71.0045 99.5679 71.0045C99.1964 71.0045 98.8323 70.9246 98.4756 70.7649C98.1226 70.6051 97.829 70.3617 97.595 70.0348C97.3646 69.7078 97.2494 69.2954 97.2494 68.7975V60.2814ZM107.188 70.8931V59.4788H111.045C111.937 59.4788 112.668 59.6312 113.241 59.9358C113.813 60.2368 114.236 60.6511 114.511 61.1787C114.786 61.7063 114.924 62.3064 114.924 62.9789C114.924 63.6514 114.786 64.2478 114.511 64.7679C114.236 65.2881 113.815 65.6968 113.246 65.9941C112.678 66.2876 111.951 66.4344 111.067 66.4344H107.946V65.1859H111.022C111.632 65.1859 112.122 65.0968 112.494 64.9184C112.869 64.7401 113.14 64.4874 113.308 64.1604C113.478 63.8298 113.564 63.4359 113.564 62.9789C113.564 62.5219 113.478 62.1225 113.308 61.7806C113.137 61.4388 112.864 61.175 112.488 60.9892C112.113 60.7997 111.617 60.705 111 60.705H108.57V70.8931H107.188ZM112.561 65.7656L115.37 70.8931H113.765L111 65.7656H112.561ZM119.68 71.0937C119.137 71.0937 118.645 70.9915 118.203 70.7872C117.761 70.5791 117.41 70.28 117.15 69.8899C116.89 69.496 116.759 69.0204 116.759 68.4631C116.759 67.9726 116.856 67.5751 117.049 67.2704C117.243 66.962 117.501 66.7205 117.824 66.5458C118.147 66.3712 118.504 66.2412 118.894 66.1557C119.288 66.0665 119.684 65.9959 120.081 65.9439C120.601 65.877 121.023 65.8269 121.346 65.7934C121.673 65.7563 121.911 65.695 122.06 65.6095C122.212 65.5241 122.288 65.3754 122.288 65.1636V65.1191C122.288 64.5692 122.138 64.1419 121.837 63.8372C121.54 63.5325 121.088 63.3802 120.482 63.3802C119.855 63.3802 119.362 63.5176 119.006 63.7926C118.649 64.0676 118.398 64.3611 118.253 64.6732L117.005 64.2273C117.228 63.7071 117.525 63.3021 117.896 63.0123C118.272 62.7188 118.68 62.5144 119.123 62.3993C119.568 62.2804 120.007 62.2209 120.438 62.2209C120.713 62.2209 121.029 62.2544 121.385 62.3212C121.746 62.3844 122.093 62.5163 122.428 62.7169C122.766 62.9176 123.046 63.2204 123.269 63.6254C123.492 64.0304 123.604 64.5729 123.604 65.2528V70.8931H122.288V69.7338H122.221C122.132 69.9196 121.984 70.1184 121.776 70.3302C121.567 70.5419 121.291 70.7221 120.945 70.8708C120.6 71.0194 120.178 71.0937 119.68 71.0937ZM119.881 69.9122C120.401 69.9122 120.839 69.81 121.196 69.6056C121.556 69.4013 121.828 69.1375 122.01 68.8142C122.195 68.4909 122.288 68.151 122.288 67.7943V66.5904C122.233 66.6573 122.11 66.7186 121.92 66.7744C121.735 66.8264 121.519 66.8728 121.274 66.9137C121.032 66.9508 120.796 66.9843 120.566 67.014C120.339 67.04 120.156 67.0623 120.014 67.0809C119.673 67.1255 119.353 67.1979 119.056 67.2982C118.762 67.3949 118.524 67.5416 118.342 67.7385C118.164 67.9318 118.075 68.1956 118.075 68.53C118.075 68.987 118.244 69.3325 118.582 69.5666C118.924 69.797 119.357 69.9122 119.881 69.9122ZM129.839 62.3324V63.4471H125.403V62.3324H129.839ZM126.696 60.2814H128.011V68.4408C128.011 68.8123 128.065 69.091 128.173 69.2768C128.284 69.4589 128.426 69.5815 128.597 69.6446C128.771 69.7041 128.955 69.7338 129.148 69.7338C129.293 69.7338 129.412 69.7264 129.505 69.7115C129.598 69.6929 129.672 69.6781 129.728 69.6669L129.995 70.8485C129.906 70.8819 129.782 70.9154 129.622 70.9488C129.462 70.986 129.26 71.0045 129.015 71.0045C128.643 71.0045 128.279 70.9246 127.922 70.7649C127.569 70.6051 127.276 70.3617 127.042 70.0348C126.811 69.7078 126.696 69.2954 126.696 68.7975V60.2814ZM135.427 71.0714C134.602 71.0714 133.891 70.8894 133.293 70.5252C132.698 70.1574 132.239 69.6446 131.916 68.987C131.597 68.3256 131.437 67.5565 131.437 66.6796C131.437 65.8027 131.597 65.0299 131.916 64.3611C132.239 63.6886 132.689 63.1647 133.265 62.7894C133.845 62.4104 134.521 62.2209 135.294 62.2209C135.739 62.2209 136.18 62.2952 136.614 62.4438C137.049 62.5925 137.445 62.834 137.802 63.1684C138.158 63.4991 138.443 63.9375 138.654 64.4837C138.866 65.0299 138.972 65.7024 138.972 66.5013V67.0586H132.373V65.9216H137.634C137.634 65.4386 137.538 65.0076 137.345 64.6286C137.155 64.2496 136.884 63.9505 136.531 63.7313C136.182 63.5121 135.769 63.4025 135.294 63.4025C134.77 63.4025 134.316 63.5325 133.934 63.7926C133.555 64.049 133.263 64.3834 133.059 64.7958C132.854 65.2082 132.752 65.6504 132.752 66.1223V66.8802C132.752 67.5268 132.864 68.0748 133.087 68.5244C133.313 68.9703 133.627 69.3102 134.028 69.5443C134.43 69.7747 134.896 69.8899 135.427 69.8899C135.773 69.8899 136.085 69.8416 136.364 69.745C136.646 69.6446 136.889 69.496 137.094 69.2991C137.298 69.0984 137.456 68.8495 137.568 68.5523L138.838 68.9089C138.704 69.34 138.48 69.7189 138.164 70.0459C137.848 70.3692 137.458 70.6218 136.993 70.8039C136.529 70.9822 136.007 71.0714 135.427 71.0714ZM149.334 62.3324V63.4471H144.898V62.3324H149.334ZM146.191 60.2814H147.506V68.4408C147.506 68.8123 147.56 69.091 147.668 69.2768C147.779 69.4589 147.92 69.5815 148.091 69.6446C148.266 69.7041 148.45 69.7338 148.643 69.7338C148.788 69.7338 148.907 69.7264 149 69.7115C149.093 69.6929 149.167 69.6781 149.223 69.6669L149.49 70.8485C149.401 70.8819 149.277 70.9154 149.117 70.9488C148.957 70.986 148.755 71.0045 148.509 71.0045C148.138 71.0045 147.774 70.9246 147.417 70.7649C147.064 70.6051 146.77 70.3617 146.536 70.0348C146.306 69.7078 146.191 69.2954 146.191 68.7975V60.2814ZM152.924 65.7433V70.8931H151.609V59.4788H152.924V63.67H153.036C153.236 63.2278 153.537 62.8767 153.938 62.6166C154.343 62.3528 154.882 62.2209 155.555 62.2209C156.138 62.2209 156.649 62.338 157.087 62.572C157.526 62.8024 157.866 63.1572 158.107 63.6365C158.352 64.1121 158.475 64.7178 158.475 65.4535V70.8931H157.16V65.5426C157.16 64.8627 156.983 64.3369 156.63 63.9654C156.281 63.5901 155.796 63.4025 155.176 63.4025C154.745 63.4025 154.358 63.4935 154.016 63.6756C153.678 63.8576 153.411 64.1233 153.214 64.4726C153.021 64.8218 152.924 65.2454 152.924 65.7433ZM160.994 70.8931V62.3324H162.309V70.8931H160.994ZM161.662 60.9056C161.406 60.9056 161.185 60.8183 160.999 60.6437C160.817 60.469 160.726 60.2591 160.726 60.0139C160.726 59.7686 160.817 59.5587 160.999 59.3841C161.185 59.2094 161.406 59.1221 161.662 59.1221C161.919 59.1221 162.138 59.2094 162.32 59.3841C162.506 59.5587 162.599 59.7686 162.599 60.0139C162.599 60.2591 162.506 60.469 162.32 60.6437C162.138 60.8183 161.919 60.9056 161.662 60.9056ZM170.894 64.2496L169.712 64.584C169.638 64.3871 169.528 64.1957 169.383 64.01C169.242 63.8205 169.049 63.6644 168.804 63.5418C168.559 63.4192 168.245 63.3579 167.862 63.3579C167.338 63.3579 166.901 63.4786 166.552 63.7201C166.207 63.9579 166.034 64.2608 166.034 64.6286C166.034 64.9556 166.153 65.2138 166.391 65.4033C166.628 65.5928 167 65.7507 167.505 65.877L168.776 66.1891C169.541 66.3749 170.112 66.6592 170.487 67.0419C170.862 67.4209 171.05 67.9095 171.05 68.5077C171.05 68.9981 170.909 69.4366 170.626 69.823C170.348 70.2094 169.958 70.5141 169.456 70.737C168.954 70.9599 168.371 71.0714 167.706 71.0714C166.833 71.0714 166.11 70.8819 165.538 70.5029C164.966 70.1239 164.603 69.5703 164.451 68.8421L165.699 68.53C165.818 68.9907 166.043 69.3362 166.374 69.5666C166.708 69.797 167.145 69.9122 167.684 69.9122C168.297 69.9122 168.783 69.7821 169.144 69.522C169.508 69.2582 169.69 68.9424 169.69 68.5745C169.69 68.2773 169.586 68.0284 169.378 67.8277C169.17 67.6234 168.85 67.471 168.419 67.3707L166.992 67.0363C166.208 66.8505 165.633 66.5626 165.265 66.1724C164.901 65.7786 164.719 65.2863 164.719 64.6955C164.719 64.2125 164.854 63.7852 165.125 63.4136C165.4 63.0421 165.774 62.7504 166.246 62.5386C166.721 62.3268 167.26 62.2209 167.862 62.2209C168.709 62.2209 169.374 62.4067 169.857 62.7782C170.344 63.1498 170.689 63.6403 170.894 64.2496ZM178.515 74.1033C178.292 74.1033 178.094 74.0847 177.919 74.0476C177.744 74.0141 177.624 73.9807 177.557 73.9473L177.891 72.788C178.211 72.8698 178.493 72.8995 178.738 72.8772C178.983 72.8549 179.201 72.7453 179.39 72.5484C179.584 72.3551 179.76 72.0412 179.92 71.6065L180.165 70.9377L176.999 62.3324H178.426L180.789 69.1542H180.878L183.242 62.3324H184.668L181.034 72.1415C180.871 72.5837 180.668 72.9496 180.427 73.2395C180.185 73.533 179.905 73.7503 179.585 73.8915C179.27 74.0327 178.913 74.1033 178.515 74.1033ZM189.799 71.0714C188.974 71.0714 188.263 70.8894 187.665 70.5252C187.07 70.1574 186.611 69.6446 186.288 68.987C185.968 68.3256 185.809 67.5565 185.809 66.6796C185.809 65.8027 185.968 65.0299 186.288 64.3611C186.611 63.6886 187.061 63.1647 187.637 62.7894C188.216 62.4104 188.893 62.2209 189.665 62.2209C190.111 62.2209 190.552 62.2952 190.986 62.4438C191.421 62.5925 191.817 62.834 192.173 63.1684C192.53 63.4991 192.814 63.9375 193.026 64.4837C193.238 65.0299 193.344 65.7024 193.344 66.5013V67.0586H186.745V65.9216H192.006C192.006 65.4386 191.91 65.0076 191.716 64.6286C191.527 64.2496 191.256 63.9505 190.903 63.7313C190.553 63.5121 190.141 63.4025 189.665 63.4025C189.142 63.4025 188.688 63.5325 188.306 63.7926C187.927 64.049 187.635 64.3834 187.431 64.7958C187.226 65.2082 187.124 65.6504 187.124 66.1223V66.8802C187.124 67.5268 187.235 68.0748 187.458 68.5244C187.685 68.9703 187.999 69.3102 188.4 69.5443C188.802 69.7747 189.268 69.8899 189.799 69.8899C190.145 69.8899 190.457 69.8416 190.736 69.745C191.018 69.6446 191.261 69.496 191.466 69.2991C191.67 69.0984 191.828 68.8495 191.939 68.5523L193.21 68.9089C193.076 69.34 192.852 69.7189 192.536 70.0459C192.22 70.3692 191.83 70.6218 191.365 70.8039C190.901 70.9822 190.379 71.0714 189.799 71.0714ZM197.976 71.0937C197.433 71.0937 196.941 70.9915 196.499 70.7872C196.057 70.5791 195.706 70.28 195.446 69.8899C195.186 69.496 195.056 69.0204 195.056 68.4631C195.056 67.9726 195.152 67.5751 195.345 67.2704C195.539 66.962 195.797 66.7205 196.12 66.5458C196.443 66.3712 196.8 66.2412 197.19 66.1557C197.584 66.0665 197.98 65.9959 198.377 65.9439C198.897 65.877 199.319 65.8269 199.642 65.7934C199.969 65.7563 200.207 65.695 200.356 65.6095C200.508 65.5241 200.584 65.3754 200.584 65.1636V65.1191C200.584 64.5692 200.434 64.1419 200.133 63.8372C199.836 63.5325 199.384 63.3802 198.779 63.3802C198.151 63.3802 197.658 63.5176 197.302 63.7926C196.945 64.0676 196.694 64.3611 196.549 64.6732L195.301 64.2273C195.524 63.7071 195.821 63.3021 196.192 63.0123C196.568 62.7188 196.976 62.5144 197.419 62.3993C197.864 62.2804 198.303 62.2209 198.734 62.2209C199.009 62.2209 199.325 62.2544 199.681 62.3212C200.042 62.3844 200.389 62.5163 200.724 62.7169C201.062 62.9176 201.342 63.2204 201.565 63.6254C201.788 64.0304 201.9 64.5729 201.9 65.2528V70.8931H200.584V69.7338H200.517C200.428 69.9196 200.28 70.1184 200.072 70.3302C199.863 70.5419 199.587 70.7221 199.241 70.8708C198.896 71.0194 198.474 71.0937 197.976 71.0937ZM198.177 69.9122C198.697 69.9122 199.135 69.81 199.492 69.6056C199.852 69.4013 200.124 69.1375 200.306 68.8142C200.491 68.4909 200.584 68.151 200.584 67.7943V66.5904C200.529 66.6573 200.406 66.7186 200.216 66.7744C200.031 66.8264 199.815 66.8728 199.57 66.9137C199.328 66.9508 199.092 66.9843 198.862 67.014C198.635 67.04 198.452 67.0623 198.31 67.0809C197.969 67.1255 197.649 67.1979 197.352 67.2982C197.058 67.3949 196.82 67.5416 196.638 67.7385C196.46 67.9318 196.371 68.1956 196.371 68.53C196.371 68.987 196.54 69.3325 196.878 69.5666C197.22 69.797 197.653 69.9122 198.177 69.9122ZM204.412 70.8931V62.3324H205.683V63.6254H205.772C205.928 63.2018 206.211 62.8581 206.619 62.5943C207.028 62.3305 207.489 62.1986 208.002 62.1986C208.098 62.1986 208.219 62.2005 208.364 62.2042C208.509 62.2079 208.618 62.2135 208.693 62.2209V63.5585C208.648 63.5474 208.546 63.5307 208.386 63.5084C208.23 63.4824 208.065 63.4693 207.89 63.4693C207.474 63.4693 207.103 63.5567 206.776 63.7313C206.452 63.9022 206.196 64.14 206.006 64.4447C205.821 64.7456 205.728 65.0893 205.728 65.4758V70.8931H204.412Z" fill="#696974"/>
<path opacity="0.1" fill-rule="evenodd" clip-rule="evenodd" d="M259.674 74.4413C273.858 74.4413 285.356 62.943 285.356 48.7592C285.356 34.5754 273.858 23.0771 259.674 23.0771C245.49 23.0771 233.992 34.5754 233.992 48.7592C233.992 62.943 245.49 74.4413 259.674 74.4413Z" stroke="#3DD598" stroke-width="2.19724"/>
<path fill-rule="evenodd" clip-rule="evenodd" d="M268.235 44.9547H251.113V47.8082C251.113 48.3336 251.539 48.7594 252.064 48.7594H267.283C267.809 48.7594 268.235 48.3336 268.235 47.8082V44.9547ZM254.918 43.0523C254.918 41.4763 256.196 40.1987 257.772 40.1987H261.576C263.152 40.1987 264.43 41.4763 264.43 43.0523H268.235C269.285 43.0523 270.137 43.904 270.137 44.9547V54.4665C270.137 56.5678 268.434 58.2713 266.332 58.2713H253.016C250.914 58.2713 249.211 56.5678 249.211 54.4665V44.9547C249.211 43.904 250.063 43.0523 251.113 43.0523H254.918ZM256.82 43.0523H262.528C262.528 42.527 262.102 42.1011 261.576 42.1011H257.772C257.246 42.1011 256.82 42.527 256.82 43.0523ZM256.82 50.6618H252.064C251.731 50.6618 251.411 50.6046 251.113 50.4994V54.4665C251.113 55.5172 251.965 56.3689 253.016 56.3689H266.332C267.383 56.3689 268.235 55.5172 268.235 54.4665V50.4994C267.937 50.6046 267.617 50.6618 267.283 50.6618H262.528V52.1837C262.528 52.9191 261.931 53.5154 261.196 53.5154H258.152C257.417 53.5154 256.82 52.9191 256.82 52.1837V50.6618ZM258.723 51.613H260.625V50.6618H258.723V51.613Z" fill="#3DD598"/>
<path d="M233.992 48.7592C233.992 62.943 245.49 74.4413 259.674 74.4413V74.4413C273.858 74.4413 285.356 62.943 285.356 48.7592C285.356 34.5754 273.858 23.0771 259.674 23.0771" stroke="#3DD598" stroke-width="2.20132" stroke-linecap="round" stroke-linejoin="round"/>
<path d="M294.313 40.6504L300.491 28.4214V28.3221H293.32V26.1232H303.215V28.3718L297.044 40.6504H294.313ZM311.556 26.1232V40.6504H308.924V28.6839H308.839L305.442 30.8544V28.4427L309.052 26.1232H311.556ZM323.154 37.9265V37.1605C323.154 36.5977 323.273 36.0799 323.509 35.607C323.75 35.1341 324.1 34.7534 324.559 34.465C325.018 34.1765 325.573 34.0323 326.226 34.0323C326.897 34.0323 327.46 34.1765 327.914 34.465C328.368 34.7487 328.711 35.127 328.943 35.5999C329.179 36.0728 329.297 36.593 329.297 37.1605V37.9265C329.297 38.4893 329.179 39.0071 328.943 39.48C328.706 39.9529 328.359 40.3336 327.9 40.622C327.446 40.9105 326.888 41.0547 326.226 41.0547C325.564 41.0547 325.003 40.9105 324.545 40.622C324.086 40.3336 323.739 39.9529 323.502 39.48C323.27 39.0071 323.154 38.4893 323.154 37.9265ZM325.006 37.1605V37.9265C325.006 38.3001 325.096 38.643 325.275 38.9551C325.455 39.2672 325.772 39.4232 326.226 39.4232C326.685 39.4232 326.999 39.2695 327.169 38.9622C327.344 38.6501 327.432 38.3048 327.432 37.9265V37.1605C327.432 36.7821 327.349 36.4369 327.184 36.1248C327.018 35.808 326.699 35.6496 326.226 35.6496C325.781 35.6496 325.467 35.808 325.282 36.1248C325.098 36.4369 325.006 36.7821 325.006 37.1605ZM315.77 29.6131V28.847C315.77 28.2796 315.891 27.7594 316.132 27.2865C316.373 26.8136 316.723 26.4353 317.182 26.1515C317.641 25.8631 318.196 25.7188 318.849 25.7188C319.516 25.7188 320.076 25.8631 320.53 26.1515C320.989 26.4353 321.334 26.8136 321.566 27.2865C321.797 27.7594 321.913 28.2796 321.913 28.847V29.6131C321.913 30.1806 321.795 30.7008 321.558 31.1736C321.327 31.6418 320.982 32.0178 320.523 32.3015C320.064 32.5852 319.506 32.7271 318.849 32.7271C318.182 32.7271 317.619 32.5852 317.161 32.3015C316.707 32.0178 316.361 31.6394 316.125 31.1666C315.889 30.6937 315.77 30.1758 315.77 29.6131ZM317.636 28.847V29.6131C317.636 29.9914 317.723 30.3366 317.898 30.6487C318.078 30.9561 318.395 31.1098 318.849 31.1098C319.303 31.1098 319.615 30.9561 319.785 30.6487C319.96 30.3366 320.048 29.9914 320.048 29.6131V28.847C320.048 28.4687 319.965 28.1235 319.799 27.8114C319.634 27.4946 319.317 27.3361 318.849 27.3361C318.4 27.3361 318.085 27.4946 317.905 27.8114C317.726 28.1282 317.636 28.4734 317.636 28.847ZM316.579 40.6504L326.566 26.1232H328.34L318.352 40.6504H316.579Z" fill="#171725"/>
<path d="M297.84 71.4663H293.998V59.0144H298.011C299.219 59.0144 300.252 59.2637 301.111 59.7622C301.971 60.2568 302.629 60.9681 303.087 61.8963C303.546 62.8205 303.775 63.9271 303.775 65.216C303.775 66.5131 303.543 67.6298 303.081 68.5661C302.619 69.4984 301.946 70.2158 301.063 70.7185C300.179 71.217 299.105 71.4663 297.84 71.4663ZM295.506 70.1287H297.743C298.773 70.1287 299.626 69.9301 300.303 69.5329C300.98 69.1356 301.484 68.5702 301.817 67.8365C302.149 67.1029 302.315 66.2294 302.315 65.216C302.315 64.2108 302.151 63.3454 301.823 62.6199C301.495 61.8903 301.004 61.3309 300.351 60.9418C299.699 60.5486 298.886 60.352 297.913 60.352H295.506V70.1287ZM310.147 71.6609C309.247 71.6609 308.471 71.4623 307.818 71.065C307.17 70.6637 306.669 70.1044 306.317 69.3869C305.968 68.6654 305.794 67.8264 305.794 66.8698C305.794 65.9132 305.968 65.0701 306.317 64.3405C306.669 63.6069 307.16 63.0353 307.788 62.6259C308.42 62.2125 309.158 62.0058 310.001 62.0058C310.488 62.0058 310.968 62.0868 311.442 62.249C311.916 62.4111 312.348 62.6746 312.737 63.0394C313.126 63.4001 313.436 63.8784 313.667 64.4743C313.898 65.0701 314.014 65.8038 314.014 66.6752V67.2832H306.815V66.0429H312.555C312.555 65.516 312.449 65.0458 312.239 64.6324C312.032 64.2189 311.736 63.8926 311.351 63.6535C310.97 63.4143 310.52 63.2947 310.001 63.2947C309.43 63.2947 308.935 63.4366 308.518 63.7203C308.104 64 307.786 64.3648 307.563 64.8148C307.34 65.2647 307.229 65.747 307.229 66.2618V67.0887C307.229 67.794 307.35 68.3918 307.593 68.8823C307.841 69.3687 308.183 69.7396 308.621 69.9949C309.059 70.2462 309.567 70.3719 310.147 70.3719C310.524 70.3719 310.865 70.3192 311.169 70.2138C311.477 70.1044 311.742 69.9422 311.965 69.7274C312.188 69.5085 312.36 69.237 312.482 68.9127L313.868 69.3018C313.722 69.772 313.477 70.1854 313.132 70.5421C312.788 70.8948 312.362 71.1704 311.856 71.369C311.349 71.5636 310.779 71.6609 310.147 71.6609ZM319.067 71.6852C318.475 71.6852 317.938 71.5737 317.456 71.3508C316.974 71.1238 316.591 70.7975 316.307 70.3719C316.023 69.9422 315.881 69.4234 315.881 68.8154C315.881 68.2804 315.987 67.8467 316.197 67.5143C316.408 67.1779 316.69 66.9144 317.043 66.7239C317.395 66.5334 317.784 66.3915 318.21 66.2983C318.64 66.201 319.071 66.124 319.505 66.0672C320.072 65.9943 320.532 65.9396 320.885 65.9031C321.242 65.8625 321.501 65.7957 321.663 65.7024C321.83 65.6092 321.913 65.4471 321.913 65.216V65.1674C321.913 64.5675 321.748 64.1014 321.42 63.769C321.096 63.4366 320.603 63.2704 319.943 63.2704C319.258 63.2704 318.721 63.4204 318.332 63.7203C317.942 64.0203 317.669 64.3405 317.511 64.681L316.149 64.1946C316.392 63.6271 316.716 63.1853 317.122 62.8691C317.531 62.5489 317.977 62.326 318.459 62.2003C318.946 62.0706 319.424 62.0058 319.894 62.0058C320.194 62.0058 320.539 62.0423 320.928 62.1152C321.321 62.1841 321.7 62.328 322.065 62.5469C322.434 62.7658 322.74 63.0961 322.983 63.5379C323.226 63.9798 323.348 64.5716 323.348 65.3133V71.4663H321.913V70.2017H321.84C321.742 70.4043 321.58 70.6212 321.353 70.8522C321.126 71.0833 320.824 71.2799 320.447 71.442C320.07 71.6041 319.61 71.6852 319.067 71.6852ZM319.286 70.3962C319.854 70.3962 320.332 70.2848 320.721 70.0618C321.114 69.8389 321.41 69.5511 321.609 69.1985C321.811 68.8458 321.913 68.4749 321.913 68.0858V66.7725C321.852 66.8455 321.718 66.9124 321.511 66.9732C321.309 67.0299 321.074 67.0806 320.806 67.1252C320.543 67.1657 320.285 67.2022 320.034 67.2346C319.787 67.263 319.586 67.2873 319.432 67.3076C319.059 67.3562 318.711 67.4352 318.386 67.5447C318.066 67.6501 317.807 67.8102 317.608 68.025C317.413 68.2358 317.316 68.5236 317.316 68.8884C317.316 69.3869 317.501 69.7639 317.869 70.0193C318.242 70.2706 318.715 70.3962 319.286 70.3962ZM327.524 59.0144V71.4663H326.089V59.0144H327.524ZM336.889 64.2189L335.6 64.5837C335.519 64.3689 335.4 64.1601 335.241 63.9575C335.087 63.7507 334.877 63.5805 334.609 63.4467C334.342 63.313 333.999 63.2461 333.582 63.2461C333.01 63.2461 332.534 63.3778 332.153 63.6413C331.776 63.9007 331.587 64.2311 331.587 64.6324C331.587 64.989 331.717 65.2708 331.976 65.4775C332.236 65.6842 332.641 65.8565 333.193 65.9943L334.579 66.3348C335.414 66.5374 336.036 66.8475 336.445 67.265C336.855 67.6784 337.059 68.2115 337.059 68.8641C337.059 69.3991 336.905 69.8774 336.597 70.2989C336.293 70.7205 335.868 71.0529 335.321 71.2961C334.773 71.5393 334.137 71.6609 333.411 71.6609C332.459 71.6609 331.67 71.4541 331.046 71.0407C330.422 70.6273 330.027 70.0233 329.861 69.2289L331.223 68.8884C331.352 69.391 331.598 69.768 331.958 70.0193C332.323 70.2706 332.799 70.3962 333.387 70.3962C334.056 70.3962 334.587 70.2544 334.98 69.9706C335.377 69.6828 335.576 69.3383 335.576 68.937C335.576 68.6127 335.462 68.3412 335.235 68.1223C335.008 67.8994 334.66 67.7332 334.19 67.6237L332.633 67.2589C331.778 67.0563 331.15 66.7421 330.748 66.3165C330.351 65.8869 330.152 65.3498 330.152 64.7053C330.152 64.1784 330.3 63.7122 330.596 63.3069C330.896 62.9016 331.304 62.5834 331.818 62.3523C332.337 62.1213 332.925 62.0058 333.582 62.0058C334.506 62.0058 335.231 62.2084 335.758 62.6138C336.289 63.0191 336.666 63.5542 336.889 64.2189ZM348.341 62.1274V63.3434H343.501V62.1274H348.341ZM344.912 59.8899H346.347V68.7911C346.347 69.1964 346.405 69.5004 346.523 69.7031C346.644 69.9017 346.798 70.0355 346.985 70.1044C347.175 70.1692 347.376 70.2017 347.587 70.2017C347.745 70.2017 347.875 70.1936 347.976 70.1773C348.077 70.1571 348.158 70.1409 348.219 70.1287L348.511 71.4177C348.414 71.4541 348.278 71.4906 348.104 71.5271C347.929 71.5676 347.708 71.5879 347.441 71.5879C347.036 71.5879 346.638 71.5008 346.249 71.3265C345.864 71.1522 345.544 70.8867 345.289 70.53C345.037 70.1733 344.912 69.7234 344.912 69.1802V59.8899ZM352.257 65.8484V71.4663H350.822V59.0144H352.257V63.5866H352.379C352.597 63.1042 352.926 62.7212 353.364 62.4375C353.805 62.1497 354.393 62.0058 355.127 62.0058C355.763 62.0058 356.32 62.1335 356.799 62.3888C357.277 62.6401 357.648 63.0272 357.911 63.5501C358.179 64.0689 358.313 64.7296 358.313 65.5322V71.4663H356.878V65.6295C356.878 64.8877 356.685 64.3142 356.3 63.9088C355.919 63.4994 355.39 63.2947 354.713 63.2947C354.243 63.2947 353.822 63.3941 353.449 63.5927C353.08 63.7913 352.788 64.0811 352.573 64.4621C352.362 64.8431 352.257 65.3052 352.257 65.8484ZM361.06 71.4663V62.1274H362.495V71.4663H361.06ZM361.79 60.5709C361.51 60.5709 361.269 60.4756 361.066 60.2851C360.868 60.0946 360.768 59.8656 360.768 59.5981C360.768 59.3306 360.868 59.1015 361.066 58.911C361.269 58.7205 361.51 58.6253 361.79 58.6253C362.069 58.6253 362.309 58.7205 362.507 58.911C362.71 59.1015 362.811 59.3306 362.811 59.5981C362.811 59.8656 362.71 60.0946 362.507 60.2851C362.309 60.4756 362.069 60.5709 361.79 60.5709ZM371.86 64.2189L370.571 64.5837C370.49 64.3689 370.371 64.1601 370.213 63.9575C370.059 63.7507 369.848 63.5805 369.58 63.4467C369.313 63.313 368.97 63.2461 368.553 63.2461C367.981 63.2461 367.505 63.3778 367.124 63.6413C366.747 63.9007 366.559 64.2311 366.559 64.6324C366.559 64.989 366.688 65.2708 366.948 65.4775C367.207 65.6842 367.613 65.8565 368.164 65.9943L369.55 66.3348C370.385 66.5374 371.007 66.8475 371.417 67.265C371.826 67.6784 372.031 68.2115 372.031 68.8641C372.031 69.3991 371.877 69.8774 371.569 70.2989C371.265 70.7205 370.839 71.0529 370.292 71.2961C369.745 71.5393 369.108 71.6609 368.383 71.6609C367.43 71.6609 366.642 71.4541 366.018 71.0407C365.393 70.6273 364.998 70.0233 364.832 69.2289L366.194 68.8884C366.324 69.391 366.569 69.768 366.93 70.0193C367.294 70.2706 367.771 70.3962 368.358 70.3962C369.027 70.3962 369.558 70.2544 369.951 69.9706C370.349 69.6828 370.547 69.3383 370.547 68.937C370.547 68.6127 370.434 68.3412 370.207 68.1223C369.98 67.8994 369.631 67.7332 369.161 67.6237L367.604 67.2589C366.749 67.0563 366.121 66.7421 365.72 66.3165C365.322 65.8869 365.124 65.3498 365.124 64.7053C365.124 64.1784 365.272 63.7122 365.568 63.3069C365.868 62.9016 366.275 62.5834 366.79 62.3523C367.309 62.1213 367.896 62.0058 368.553 62.0058C369.477 62.0058 370.203 62.2084 370.73 62.6138C371.261 63.0191 371.637 63.5542 371.86 64.2189ZM380.175 74.9684C379.932 74.9684 379.715 74.9481 379.524 74.9076C379.334 74.8711 379.202 74.8346 379.129 74.7982L379.494 73.5335C379.842 73.6227 380.15 73.6551 380.418 73.6308C380.685 73.6065 380.923 73.4869 381.129 73.2721C381.34 73.0613 381.533 72.7188 381.707 72.2446L381.974 71.5149L378.521 62.1274H380.077L382.655 69.5693H382.753L385.331 62.1274H386.887L382.923 72.8282C382.745 73.3106 382.524 73.7098 382.26 74.026C381.997 74.3462 381.691 74.5833 381.342 74.7374C380.998 74.8914 380.608 74.9684 380.175 74.9684ZM392.484 71.6609C391.585 71.6609 390.808 71.4623 390.156 71.065C389.507 70.6637 389.007 70.1044 388.654 69.3869C388.305 68.6654 388.131 67.8264 388.131 66.8698C388.131 65.9132 388.305 65.0701 388.654 64.3405C389.007 63.6069 389.497 63.0353 390.125 62.6259C390.758 62.2125 391.495 62.0058 392.339 62.0058C392.825 62.0058 393.305 62.0868 393.78 62.249C394.254 62.4111 394.685 62.6746 395.075 63.0394C395.464 63.4001 395.774 63.8784 396.005 64.4743C396.236 65.0701 396.351 65.8038 396.351 66.6752V67.2832H389.153V66.0429H394.892C394.892 65.516 394.787 65.0458 394.576 64.6324C394.369 64.2189 394.073 63.8926 393.688 63.6535C393.307 63.4143 392.857 63.2947 392.339 63.2947C391.767 63.2947 391.273 63.4366 390.855 63.7203C390.442 64 390.123 64.3648 389.9 64.8148C389.678 65.2647 389.566 65.747 389.566 66.2618V67.0887C389.566 67.794 389.688 68.3918 389.931 68.8823C390.178 69.3687 390.521 69.7396 390.958 69.9949C391.396 70.2462 391.905 70.3719 392.484 70.3719C392.861 70.3719 393.202 70.3192 393.506 70.2138C393.814 70.1044 394.079 69.9422 394.302 69.7274C394.525 69.5085 394.698 69.237 394.819 68.9127L396.205 69.3018C396.06 69.772 395.814 70.1854 395.47 70.5421C395.125 70.8948 394.7 71.1704 394.193 71.369C393.686 71.5636 393.117 71.6609 392.484 71.6609ZM401.405 71.6852C400.813 71.6852 400.276 71.5737 399.793 71.3508C399.311 71.1238 398.928 70.7975 398.644 70.3719C398.36 69.9422 398.219 69.4234 398.219 68.8154C398.219 68.2804 398.324 67.8467 398.535 67.5143C398.746 67.1779 399.027 66.9144 399.38 66.7239C399.733 66.5334 400.122 66.3915 400.547 66.2983C400.977 66.201 401.409 66.124 401.842 66.0672C402.41 65.9943 402.87 65.9396 403.222 65.9031C403.579 65.8625 403.839 65.7957 404.001 65.7024C404.167 65.6092 404.25 65.4471 404.25 65.216V65.1674C404.25 64.5675 404.086 64.1014 403.758 63.769C403.433 63.4366 402.941 63.2704 402.28 63.2704C401.595 63.2704 401.058 63.4204 400.669 63.7203C400.28 64.0203 400.006 64.3405 399.848 64.681L398.486 64.1946C398.729 63.6271 399.054 63.1853 399.459 62.8691C399.868 62.5489 400.314 62.326 400.797 62.2003C401.283 62.0706 401.761 62.0058 402.231 62.0058C402.531 62.0058 402.876 62.0423 403.265 62.1152C403.658 62.1841 404.037 62.328 404.402 62.5469C404.771 62.7658 405.077 63.0961 405.32 63.5379C405.563 63.9798 405.685 64.5716 405.685 65.3133V71.4663H404.25V70.2017H404.177C404.08 70.4043 403.918 70.6212 403.691 70.8522C403.464 71.0833 403.162 71.2799 402.785 71.442C402.408 71.6041 401.948 71.6852 401.405 71.6852ZM401.623 70.3962C402.191 70.3962 402.669 70.2848 403.058 70.0618C403.451 69.8389 403.747 69.5511 403.946 69.1985C404.149 68.8458 404.25 68.4749 404.25 68.0858V66.7725C404.189 66.8455 404.055 66.9124 403.849 66.9732C403.646 67.0299 403.411 67.0806 403.143 67.1252C402.88 67.1657 402.623 67.2022 402.371 67.2346C402.124 67.263 401.923 67.2873 401.769 67.3076C401.396 67.3562 401.048 67.4352 400.724 67.5447C400.403 67.6501 400.144 67.8102 399.945 68.025C399.751 68.2358 399.654 68.5236 399.654 68.8884C399.654 69.3869 399.838 69.7639 400.207 70.0193C400.58 70.2706 401.052 70.3962 401.623 70.3962ZM408.426 71.4663V62.1274H409.812V63.5379H409.91C410.08 63.0759 410.388 62.7009 410.834 62.4131C411.28 62.1254 411.782 61.9815 412.342 61.9815C412.447 61.9815 412.579 61.9835 412.737 61.9875C412.895 61.9916 413.015 61.9977 413.096 62.0058V63.465C413.047 63.4528 412.936 63.4346 412.761 63.4103C412.591 63.3819 412.411 63.3677 412.22 63.3677C411.766 63.3677 411.361 63.463 411.004 63.6535C410.651 63.8399 410.372 64.0993 410.165 64.4317C409.962 64.76 409.861 65.135 409.861 65.5565V71.4663H408.426Z" fill="#696974"/>
</g>
</svg>
