<svg width="452" height="305" viewBox="0 0 452 305" fill="none" xmlns="http://www.w3.org/2000/svg">
<path d="M64 125H434" stroke="#E9E9E9" stroke-width="1.5" stroke-linecap="round" stroke-dasharray="9 10"/>
<path d="M64 169H434" stroke="#E9E9E9" stroke-width="1.5" stroke-linecap="round" stroke-dasharray="9 10"/>
<path d="M64 213H434" stroke="#E9E9E9" stroke-width="1.5" stroke-linecap="round" stroke-dasharray="9 10"/>
<path d="M64 257H434" stroke="#E9E9E9" stroke-width="1.5" stroke-linecap="round" stroke-dasharray="9 10"/>
<path d="M20.9211 80.6337C21.3312 80.8428 21.6528 81.1242 21.886 81.478C22.1192 81.8318 22.2358 82.2339 22.2358 82.6842C22.2358 83.4561 21.9664 84.0632 21.4277 84.5055C20.8889 84.9397 20.1934 85.1568 19.341 85.1568C18.4967 85.1568 17.8052 84.9397 17.2665 84.5055C16.7277 84.0632 16.4583 83.4561 16.4583 82.6842C16.4583 82.2339 16.5749 81.8318 16.8081 81.478C17.0413 81.1242 17.363 80.8428 17.773 80.6337C17.0815 80.1995 16.7358 79.5844 16.7358 78.7883C16.7358 78.0244 16.989 77.4374 17.4956 77.0273C18.0103 76.6092 18.6254 76.4001 19.341 76.4001C20.0647 76.4001 20.6799 76.6092 21.1865 77.0273C21.7011 77.4374 21.9584 78.0244 21.9584 78.7883C21.9584 79.5844 21.6126 80.1995 20.9211 80.6337ZM19.341 77.4736C18.9149 77.4736 18.557 77.5862 18.2676 77.8113C17.9861 78.0365 17.8454 78.3702 17.8454 78.8124C17.8454 79.2386 17.9902 79.5723 18.2796 79.8135C18.5691 80.0467 18.9229 80.1633 19.341 80.1633C19.7592 80.1633 20.113 80.0467 20.4025 79.8135C20.6919 79.5723 20.8367 79.2386 20.8367 78.8124C20.8367 78.3702 20.696 78.0365 20.4145 77.8113C20.1331 77.5862 19.7753 77.4736 19.341 77.4736ZM19.341 84.0833C19.8798 84.0833 20.31 83.9587 20.6316 83.7094C20.9613 83.4521 21.1262 83.0862 21.1262 82.6118C21.1262 82.1454 20.9613 81.7876 20.6316 81.5383C20.31 81.281 19.8798 81.1524 19.341 81.1524C18.8103 81.1524 18.3801 81.281 18.0505 81.5383C17.7288 81.7876 17.568 82.1454 17.568 82.6118C17.568 83.0862 17.7288 83.4521 18.0505 83.7094C18.3801 83.9587 18.8103 84.0833 19.341 84.0833ZM28.89 83.9627C28.3191 84.7588 27.519 85.1568 26.4898 85.1568C25.4605 85.1568 24.6604 84.7588 24.0895 83.9627C23.5186 83.1666 23.2332 82.1052 23.2332 80.7785C23.2332 79.4517 23.5186 78.3903 24.0895 77.5942C24.6604 76.7982 25.4605 76.4001 26.4898 76.4001C27.519 76.4001 28.3191 76.7982 28.89 77.5942C29.4609 78.3903 29.7464 79.4517 29.7464 80.7785C29.7464 82.1052 29.4609 83.1666 28.89 83.9627ZM24.9097 83.2028C25.2796 83.7737 25.8063 84.0592 26.4898 84.0592C27.1733 84.0592 27.6999 83.7737 28.0698 83.2028C28.4478 82.6319 28.6367 81.8238 28.6367 80.7785C28.6367 79.7331 28.4478 78.925 28.0698 78.3541C27.6999 77.7751 27.1733 77.4857 26.4898 77.4857C25.8063 77.4857 25.2796 77.7711 24.9097 78.342C24.5398 78.9129 24.3549 79.7251 24.3549 80.7785C24.3549 81.8238 24.5398 82.6319 24.9097 83.2028ZM39.4304 76.5569H40.54V85H39.4304V81.2006H35.3295V85H34.2077V76.5569H35.3295V80.1392H39.4304V76.5569ZM43.2877 79.9824C43.6335 79.2346 44.2607 78.8607 45.1693 78.8607V79.9583C44.6547 79.9342 44.2124 80.0709 43.8426 80.3684C43.4727 80.6659 43.2877 81.1443 43.2877 81.8037V85H42.2384V78.9692H43.2877V79.9824Z" fill="#85878D"/>
<path d="M19.2446 124.476C20.0889 124.476 20.7844 124.741 21.3312 125.272C21.878 125.795 22.1514 126.474 22.1514 127.31C22.1514 128.147 21.878 128.83 21.3312 129.361C20.7844 129.891 20.0889 130.157 19.2446 130.157C18.3922 130.157 17.6926 129.891 17.1458 129.361C16.6071 128.83 16.3377 128.147 16.3377 127.31C16.3377 126.659 16.5066 126.096 16.8443 125.622L19.5582 121.557H20.8367L18.8465 124.5C19.0234 124.484 19.1561 124.476 19.2446 124.476ZM17.9419 128.601C18.2796 128.923 18.7138 129.083 19.2446 129.083C19.7753 129.083 20.2055 128.923 20.5351 128.601C20.8729 128.271 21.0417 127.841 21.0417 127.31C21.0417 126.78 20.8729 126.353 20.5351 126.032C20.2055 125.71 19.7753 125.549 19.2446 125.549C18.7058 125.549 18.2716 125.71 17.9419 126.032C17.6122 126.353 17.4474 126.78 17.4474 127.31C17.4474 127.841 17.6122 128.271 17.9419 128.601ZM28.6898 128.963C28.1189 129.759 27.3188 130.157 26.2895 130.157C25.2603 130.157 24.4602 129.759 23.8893 128.963C23.3184 128.167 23.0329 127.105 23.0329 125.778C23.0329 124.452 23.3184 123.39 23.8893 122.594C24.4602 121.798 25.2603 121.4 26.2895 121.4C27.3188 121.4 28.1189 121.798 28.6898 122.594C29.2607 123.39 29.5461 124.452 29.5461 125.778C29.5461 127.105 29.2607 128.167 28.6898 128.963ZM24.7095 128.203C25.0794 128.774 25.606 129.059 26.2895 129.059C26.973 129.059 27.4997 128.774 27.8696 128.203C28.2475 127.632 28.4365 126.824 28.4365 125.778C28.4365 124.733 28.2475 123.925 27.8696 123.354C27.4997 122.775 26.973 122.486 26.2895 122.486C25.606 122.486 25.0794 122.771 24.7095 123.342C24.3396 123.913 24.1546 124.725 24.1546 125.778C24.1546 126.824 24.3396 127.632 24.7095 128.203ZM39.2301 121.557H40.3398V130H39.2301V126.201H35.1292V130H34.0075V121.557H35.1292V125.139H39.2301V121.557ZM43.0875 124.982C43.4332 124.235 44.0604 123.861 44.9691 123.861V124.958C44.4545 124.934 44.0122 125.071 43.6423 125.368C43.2724 125.666 43.0875 126.144 43.0875 126.804V130H42.0381V123.969H43.0875V124.982Z" fill="#85878D"/>
<path d="M22.7424 172.346V173.396H21.7172V175H20.5954V173.396H16.2895V172.346L19.3169 166.557H20.5231L17.4956 172.346H20.5954V169.958H21.7172V172.346H22.7424ZM29.1963 173.963C28.6254 174.759 27.8253 175.157 26.796 175.157C25.7668 175.157 24.9667 174.759 24.3958 173.963C23.8249 173.167 23.5394 172.105 23.5394 170.778C23.5394 169.452 23.8249 168.39 24.3958 167.594C24.9667 166.798 25.7668 166.4 26.796 166.4C27.8253 166.4 28.6254 166.798 29.1963 167.594C29.7672 168.39 30.0526 169.452 30.0526 170.778C30.0526 172.105 29.7672 173.167 29.1963 173.963ZM25.216 173.203C25.5858 173.774 26.1125 174.059 26.796 174.059C27.4795 174.059 28.0062 173.774 28.3761 173.203C28.754 172.632 28.943 171.824 28.943 170.778C28.943 169.733 28.754 168.925 28.3761 168.354C28.0062 167.775 27.4795 167.486 26.796 167.486C26.1125 167.486 25.5858 167.771 25.216 168.342C24.8461 168.913 24.6611 169.725 24.6611 170.778C24.6611 171.824 24.8461 172.632 25.216 173.203ZM39.7366 166.557H40.8463V175H39.7366V171.201H35.6357V175H34.514V166.557H35.6357V170.139H39.7366V166.557ZM43.594 169.982C43.9397 169.235 44.5669 168.861 45.4756 168.861V169.958C44.9609 169.934 44.5187 170.071 44.1488 170.368C43.7789 170.666 43.594 171.144 43.594 171.804V175H42.5446V168.969H43.594V169.982Z" fill="#85878D"/>
<path d="M16.4342 217V216.083L19.4134 213.044C20.2095 212.248 20.6075 211.564 20.6075 210.993C20.6075 210.519 20.4628 210.149 20.1733 209.884C19.8838 209.618 19.53 209.486 19.1119 209.486C18.3158 209.486 17.7369 209.864 17.375 210.619L16.4342 210.065C16.6996 209.518 17.0654 209.104 17.5318 208.822C18.0062 208.541 18.5289 208.4 19.0998 208.4C19.8074 208.4 20.4226 208.633 20.9452 209.1C21.4679 209.566 21.7292 210.193 21.7292 210.981C21.7292 211.834 21.2267 212.762 20.2215 213.768L18.0625 215.914H21.886V217H16.4342ZM28.4424 215.963C27.8715 216.759 27.0714 217.157 26.0422 217.157C25.0129 217.157 24.2128 216.759 23.6419 215.963C23.071 215.167 22.7856 214.105 22.7856 212.778C22.7856 211.452 23.071 210.39 23.6419 209.594C24.2128 208.798 25.0129 208.4 26.0422 208.4C27.0714 208.4 27.8715 208.798 28.4424 209.594C29.0133 210.39 29.2988 211.452 29.2988 212.778C29.2988 214.105 29.0133 215.167 28.4424 215.963ZM24.4621 215.203C24.832 215.774 25.3587 216.059 26.0422 216.059C26.7257 216.059 27.2523 215.774 27.6222 215.203C28.0002 214.632 28.1891 213.824 28.1891 212.778C28.1891 211.733 28.0002 210.925 27.6222 210.354C27.2523 209.775 26.7257 209.486 26.0422 209.486C25.3587 209.486 24.832 209.771 24.4621 210.342C24.0922 210.913 23.9073 211.725 23.9073 212.778C23.9073 213.824 24.0922 214.632 24.4621 215.203ZM38.9828 208.557H40.0925V217H38.9828V213.201H34.8819V217H33.7601V208.557H34.8819V212.139H38.9828V208.557ZM42.8401 211.982C43.1859 211.235 43.8131 210.861 44.7217 210.861V211.958C44.2071 211.934 43.7648 212.071 43.395 212.368C43.0251 212.666 42.8401 213.144 42.8401 213.804V217H41.7908V210.969H42.8401V211.982Z" fill="#85878D"/>
<path d="M29.1996 260.963C28.6287 261.759 27.8286 262.157 26.7994 262.157C25.7701 262.157 24.9701 261.759 24.3991 260.963C23.8282 260.167 23.5428 259.105 23.5428 257.778C23.5428 256.452 23.8282 255.39 24.3991 254.594C24.9701 253.798 25.7701 253.4 26.7994 253.4C27.8286 253.4 28.6287 253.798 29.1996 254.594C29.7705 255.39 30.056 256.452 30.056 257.778C30.056 259.105 29.7705 260.167 29.1996 260.963ZM25.2193 260.203C25.5892 260.774 26.1159 261.059 26.7994 261.059C27.4829 261.059 28.0096 260.774 28.3794 260.203C28.7574 259.632 28.9463 258.824 28.9463 257.778C28.9463 256.733 28.7574 255.925 28.3794 255.354C28.0096 254.775 27.4829 254.486 26.7994 254.486C26.1159 254.486 25.5892 254.771 25.2193 255.342C24.8494 255.913 24.6645 256.725 24.6645 257.778C24.6645 258.824 24.8494 259.632 25.2193 260.203ZM39.74 253.557H40.8497V262H39.74V258.201H35.6391V262H34.5174V253.557H35.6391V257.139H39.74V253.557ZM43.5973 256.982C43.9431 256.235 44.5703 255.861 45.4789 255.861V256.958C44.9643 256.934 44.5221 257.071 44.1522 257.368C43.7823 257.666 43.5973 258.144 43.5973 258.804V262H42.548V255.969H43.5973V256.982Z" fill="#85878D"/>
<path d="M92.136 283.157C90.8253 283.157 89.9207 282.642 89.4222 281.613L90.6162 280.913C90.8896 281.508 91.4002 281.806 92.1481 281.806C92.6305 281.806 93.0004 281.689 93.2577 281.456C93.5231 281.215 93.6558 280.877 93.6558 280.443V274.557H95.0428V280.443C95.0428 281.311 94.7694 281.983 94.2226 282.457C93.6759 282.924 92.9803 283.157 92.136 283.157ZM101.274 276.969H102.576V283H101.274V282.132C100.783 282.815 100.08 283.157 99.163 283.157C98.3348 283.157 97.6271 282.851 97.0401 282.24C96.4532 281.621 96.1597 280.869 96.1597 279.985C96.1597 279.092 96.4532 278.34 97.0401 277.729C97.6271 277.118 98.3348 276.812 99.163 276.812C100.08 276.812 100.783 277.15 101.274 277.826V276.969ZM98.0051 281.372C98.3669 281.734 98.8212 281.914 99.368 281.914C99.9148 281.914 100.369 281.734 100.731 281.372C101.093 281.002 101.274 280.539 101.274 279.985C101.274 279.43 101.093 278.971 100.731 278.61C100.369 278.24 99.9148 278.055 99.368 278.055C98.8212 278.055 98.3669 278.24 98.0051 278.61C97.6432 278.971 97.4623 279.43 97.4623 279.985C97.4623 280.539 97.6432 281.002 98.0051 281.372ZM107.267 276.812C107.958 276.812 108.517 277.034 108.943 277.476C109.37 277.918 109.583 278.525 109.583 279.297V283H108.28V279.43C108.28 278.979 108.159 278.634 107.918 278.392C107.677 278.151 107.347 278.031 106.929 278.031C106.471 278.031 106.101 278.175 105.82 278.465C105.538 278.746 105.397 279.181 105.397 279.768V283H104.095V276.969H105.397V277.741C105.791 277.122 106.415 276.812 107.267 276.812Z" fill="#95969C"/>
<path d="M166.79 275.884H163.231V278.248H166.669V279.575H163.231V283H161.844V274.557H166.79V275.884ZM169.028 280.539C169.124 280.998 169.346 281.352 169.691 281.601C170.037 281.842 170.459 281.963 170.958 281.963C171.649 281.963 172.168 281.713 172.514 281.215L173.587 281.842C172.992 282.719 172.112 283.157 170.946 283.157C169.965 283.157 169.173 282.859 168.57 282.264C167.966 281.661 167.665 280.901 167.665 279.985C167.665 279.084 167.962 278.332 168.557 277.729C169.153 277.118 169.916 276.812 170.849 276.812C171.734 276.812 172.457 277.122 173.02 277.741C173.591 278.36 173.877 279.112 173.877 279.997C173.877 280.133 173.861 280.314 173.828 280.539H169.028ZM169.016 279.478H172.562C172.473 278.988 172.268 278.618 171.947 278.368C171.633 278.119 171.263 277.994 170.837 277.994C170.355 277.994 169.953 278.127 169.631 278.392C169.309 278.658 169.104 279.02 169.016 279.478ZM178.436 276.812C179.264 276.812 179.972 277.118 180.559 277.729C181.146 278.34 181.44 279.092 181.44 279.985C181.44 280.869 181.146 281.621 180.559 282.24C179.972 282.851 179.264 283.157 178.436 283.157C177.52 283.157 176.816 282.815 176.326 282.132V283H175.023V274.557H176.326V277.826C176.816 277.15 177.52 276.812 178.436 276.812ZM176.868 281.372C177.23 281.734 177.684 281.914 178.231 281.914C178.778 281.914 179.232 281.734 179.594 281.372C179.956 281.002 180.137 280.539 180.137 279.985C180.137 279.43 179.956 278.971 179.594 278.61C179.232 278.24 178.778 278.055 178.231 278.055C177.684 278.055 177.23 278.24 176.868 278.61C176.506 278.971 176.326 279.43 176.326 279.985C176.326 280.539 176.506 281.002 176.868 281.372Z" fill="#95969C"/>
<path d="M240.926 274.557V283H239.538V276.981L236.969 281.227H236.8L234.231 276.969V283H232.844V274.557H234.34L236.885 278.778L239.442 274.557H240.926ZM247.301 276.969H248.604V283H247.301V282.132C246.81 282.815 246.107 283.157 245.19 283.157C244.362 283.157 243.654 282.851 243.067 282.24C242.48 281.621 242.187 280.869 242.187 279.985C242.187 279.092 242.48 278.34 243.067 277.729C243.654 277.118 244.362 276.812 245.19 276.812C246.107 276.812 246.81 277.15 247.301 277.826V276.969ZM244.032 281.372C244.394 281.734 244.848 281.914 245.395 281.914C245.942 281.914 246.396 281.734 246.758 281.372C247.12 281.002 247.301 280.539 247.301 279.985C247.301 279.43 247.12 278.971 246.758 278.61C246.396 278.24 245.942 278.055 245.395 278.055C244.848 278.055 244.394 278.24 244.032 278.61C243.67 278.971 243.489 279.43 243.489 279.985C243.489 280.539 243.67 281.002 244.032 281.372ZM251.425 277.982C251.754 277.235 252.373 276.861 253.282 276.861V278.272C252.783 278.24 252.349 278.36 251.979 278.634C251.609 278.899 251.425 279.341 251.425 279.96V283H250.122V276.969H251.425V277.982Z" fill="#95969C"/>
<path d="M308.344 283L307.753 281.299H304.159L303.568 283H302.06L305.124 274.557H306.788L309.84 283H308.344ZM304.617 279.997H307.295L305.956 276.185L304.617 279.997ZM314.077 276.812C314.905 276.812 315.613 277.122 316.2 277.741C316.787 278.352 317.08 279.1 317.08 279.985C317.08 280.877 316.787 281.629 316.2 282.24C315.613 282.851 314.905 283.157 314.077 283.157C313.16 283.157 312.457 282.819 311.966 282.144V285.412H310.663V276.969H311.966V277.838C312.457 277.154 313.16 276.812 314.077 276.812ZM312.509 281.372C312.871 281.734 313.325 281.914 313.872 281.914C314.419 281.914 314.873 281.734 315.235 281.372C315.597 281.002 315.778 280.539 315.778 279.985C315.778 279.43 315.597 278.971 315.235 278.61C314.873 278.24 314.419 278.055 313.872 278.055C313.325 278.055 312.871 278.24 312.509 278.61C312.147 278.971 311.966 279.43 311.966 279.985C311.966 280.539 312.147 281.002 312.509 281.372ZM319.563 277.982C319.893 277.235 320.512 276.861 321.421 276.861V278.272C320.922 278.24 320.488 278.36 320.118 278.634C319.748 278.899 319.563 279.341 319.563 279.96V283H318.261V276.969H319.563V277.982Z" fill="#95969C"/>
<path d="M381.926 274.557V283H380.538V276.981L377.969 281.227H377.8L375.231 276.969V283H373.844V274.557H375.34L377.885 278.778L380.442 274.557H381.926ZM388.301 276.969H389.604V283H388.301V282.132C387.81 282.815 387.107 283.157 386.19 283.157C385.362 283.157 384.654 282.851 384.067 282.24C383.48 281.621 383.187 280.869 383.187 279.985C383.187 279.092 383.48 278.34 384.067 277.729C384.654 277.118 385.362 276.812 386.19 276.812C387.107 276.812 387.81 277.15 388.301 277.826V276.969ZM385.032 281.372C385.394 281.734 385.848 281.914 386.395 281.914C386.942 281.914 387.396 281.734 387.758 281.372C388.12 281.002 388.301 280.539 388.301 279.985C388.301 279.43 388.12 278.971 387.758 278.61C387.396 278.24 386.942 278.055 386.395 278.055C385.848 278.055 385.394 278.24 385.032 278.61C384.67 278.971 384.489 279.43 384.489 279.985C384.489 280.539 384.67 281.002 385.032 281.372ZM395.187 276.969H396.574L394.258 283.193C393.679 284.753 392.698 285.493 391.315 285.412V284.194C391.725 284.218 392.055 284.13 392.304 283.929C392.553 283.736 392.758 283.43 392.919 283.012L392.979 282.891L390.422 276.969H391.846L393.643 281.348L395.187 276.969Z" fill="#95969C"/>
<rect x="16" y="22" width="16" height="16" rx="4" fill="#FF9053"/>
<path d="M43.6546 34.1568C42.8425 34.1568 42.151 33.9719 41.5801 33.602C41.0172 33.2321 40.6232 32.7255 40.398 32.0822L41.5921 31.3826C41.9298 32.3315 42.6294 32.8059 43.6908 32.8059C44.2135 32.8059 44.6035 32.7054 44.8608 32.5044C45.1262 32.2953 45.2588 32.0259 45.2588 31.6962C45.2588 31.3505 45.1181 31.0891 44.8367 30.9122C44.5552 30.7273 44.0567 30.5263 43.341 30.3092C42.939 30.1886 42.6133 30.076 42.3641 29.9714C42.1148 29.8669 41.8494 29.7222 41.568 29.5372C41.2946 29.3442 41.0896 29.107 40.9529 28.8256C40.8162 28.5442 40.7478 28.2145 40.7478 27.8366C40.7478 27.0887 41.0132 26.4977 41.5439 26.0635C42.0746 25.6213 42.7138 25.4001 43.4617 25.4001C44.1371 25.4001 44.7281 25.565 45.2347 25.8946C45.7413 26.2243 46.1313 26.6786 46.4047 27.2576L45.2347 27.933C44.8809 27.145 44.2899 26.751 43.4617 26.751C43.0596 26.751 42.738 26.8475 42.4967 27.0405C42.2555 27.2254 42.1349 27.4787 42.1349 27.8004C42.1349 28.114 42.2555 28.3632 42.4967 28.5482C42.746 28.7251 43.1923 28.9141 43.8356 29.1151C44.1572 29.2196 44.3904 29.3 44.5351 29.3563C44.6879 29.4046 44.897 29.485 45.1623 29.5975C45.4357 29.7101 45.6408 29.8227 45.7775 29.9353C45.9142 30.0478 46.0589 30.1886 46.2117 30.3574C46.3725 30.5263 46.4851 30.7193 46.5494 30.9364C46.6137 31.1535 46.6459 31.3987 46.6459 31.6721C46.6459 32.436 46.3685 33.0431 45.8137 33.4934C45.2669 33.9357 44.5472 34.1568 43.6546 34.1568ZM50.945 29.2236H49.4494V32.1184C49.4494 32.3677 49.5057 32.5486 49.6182 32.6612C49.7308 32.7657 49.8956 32.826 50.1128 32.8421C50.3379 32.8501 50.6153 32.8461 50.945 32.83V34C49.9479 34.1206 49.2323 34.0362 48.798 33.7467C48.3638 33.4492 48.1467 32.9064 48.1467 32.1184V29.2236H47.0371V27.9692H48.1467V26.6666L49.4494 26.2806V27.9692H50.945V29.2236ZM56.2501 27.9692H57.5527V34H56.2501V33.2281C55.8561 33.8472 55.2329 34.1568 54.3806 34.1568C53.689 34.1568 53.1302 33.9357 52.704 33.4934C52.2778 33.0512 52.0647 32.4441 52.0647 31.6721V27.9692H53.3674V31.5394C53.3674 31.9897 53.488 32.3355 53.7292 32.5767C53.9705 32.818 54.3001 32.9386 54.7183 32.9386C55.1766 32.9386 55.5465 32.7979 55.8279 32.5164C56.1094 32.227 56.2501 31.7887 56.2501 31.2017V27.9692ZM63.8524 25.5569H65.155V34H63.8524V33.1316C63.3618 33.8151 62.6583 34.1568 61.7416 34.1568C60.9134 34.1568 60.2057 33.8512 59.6188 33.2401C59.0318 32.621 58.7383 31.8691 58.7383 30.9846C58.7383 30.0921 59.0318 29.3402 59.6188 28.7291C60.2057 28.118 60.9134 27.8124 61.7416 27.8124C62.6583 27.8124 63.3618 28.1502 63.8524 28.8256V25.5569ZM60.5837 32.3717C60.9455 32.7335 61.3998 32.9145 61.9466 32.9145C62.4934 32.9145 62.9477 32.7335 63.3096 32.3717C63.6714 32.0018 63.8524 31.5394 63.8524 30.9846C63.8524 30.4298 63.6714 29.9714 63.3096 29.6096C62.9477 29.2397 62.4934 29.0548 61.9466 29.0548C61.3998 29.0548 60.9455 29.2397 60.5837 29.6096C60.2218 29.9714 60.0409 30.4298 60.0409 30.9846C60.0409 31.5394 60.2218 32.0018 60.5837 32.3717ZM70.7381 27.9692H72.1252L69.8093 34.193C69.2304 35.7529 68.2494 36.4927 66.8663 36.4123V35.1941C67.2764 35.2182 67.6061 35.1298 67.8554 34.9287C68.1046 34.7358 68.3097 34.4302 68.4705 34.0121L68.5308 33.8914L65.9738 27.9692H67.397L69.1942 32.3476L70.7381 27.9692Z" fill="#999999"/>
<rect x="104" y="23" width="16" height="16" rx="4" fill="#F8EFE2"/>
<path d="M130.231 33.6732H133.97V35H128.844V26.5569H133.91V27.8837H130.231V30.0789H133.609V31.3936H130.231V33.6732ZM140.547 35H139.04L137.544 32.9375L136.036 35H134.517L136.784 31.9002L134.637 28.9692H136.145L137.532 30.875L138.919 28.9692H140.439L138.292 31.9122L140.547 35ZM145.763 28.9692H147.065V35H145.763V34.1316C145.272 34.8151 144.569 35.1568 143.652 35.1568C142.824 35.1568 142.116 34.8512 141.529 34.2401C140.942 33.621 140.649 32.8691 140.649 31.9846C140.649 31.0921 140.942 30.3402 141.529 29.7291C142.116 29.118 142.824 28.8124 143.652 28.8124C144.569 28.8124 145.272 29.1502 145.763 29.8256V28.9692ZM142.494 33.3717C142.856 33.7335 143.31 33.9145 143.857 33.9145C144.404 33.9145 144.858 33.7335 145.22 33.3717C145.582 33.0018 145.763 32.5394 145.763 31.9846C145.763 31.4298 145.582 30.9714 145.22 30.6096C144.858 30.2397 144.404 30.0548 143.857 30.0548C143.31 30.0548 142.856 30.2397 142.494 30.6096C142.132 30.9714 141.951 31.4298 141.951 31.9846C141.951 32.5394 142.132 33.0018 142.494 33.3717ZM155.169 28.8124C155.853 28.8124 156.404 29.0336 156.822 29.4758C157.24 29.9181 157.449 30.5131 157.449 31.2609V35H156.146V31.3454C156.146 30.9272 156.042 30.6056 155.833 30.3804C155.624 30.1472 155.338 30.0306 154.976 30.0306C154.574 30.0306 154.253 30.1633 154.011 30.4287C153.778 30.694 153.662 31.0921 153.662 31.6228V35H152.359V31.3454C152.359 30.9272 152.258 30.6056 152.057 30.3804C151.864 30.1472 151.587 30.0306 151.225 30.0306C150.831 30.0306 150.51 30.1673 150.26 30.4407C150.011 30.7061 149.886 31.1001 149.886 31.6228V35H148.584V28.9692H149.886V29.6929C150.272 29.1059 150.847 28.8124 151.611 28.8124C152.383 28.8124 152.954 29.1301 153.324 29.7653C153.726 29.1301 154.341 28.8124 155.169 28.8124ZM160.013 30.6337C160.013 30.8347 160.122 30.9956 160.339 31.1162C160.564 31.2288 160.833 31.3293 161.147 31.4177C161.468 31.4981 161.79 31.5946 162.112 31.7072C162.433 31.8198 162.703 32.0128 162.92 32.2862C163.145 32.5515 163.258 32.8892 163.258 33.2993C163.258 33.8783 163.032 34.3326 162.582 34.6623C162.14 34.992 161.581 35.1568 160.906 35.1568C160.311 35.1568 159.8 35.0322 159.374 34.7829C158.948 34.5336 158.638 34.1879 158.445 33.7456L159.567 33.0943C159.776 33.6732 160.222 33.9627 160.906 33.9627C161.589 33.9627 161.931 33.7376 161.931 33.2873C161.931 33.0943 161.818 32.9375 161.593 32.8169C161.376 32.6962 161.107 32.5957 160.785 32.5153C160.471 32.4269 160.154 32.3264 159.832 32.2138C159.51 32.1012 159.237 31.9163 159.012 31.659C158.795 31.3936 158.686 31.0599 158.686 30.6578C158.686 30.103 158.895 29.6567 159.313 29.319C159.74 28.9813 160.266 28.8124 160.894 28.8124C161.392 28.8124 161.834 28.925 162.22 29.1502C162.614 29.3673 162.916 29.6728 163.125 30.0668L162.027 30.682C161.818 30.2236 161.44 29.9945 160.894 29.9945C160.644 29.9945 160.435 30.0507 160.266 30.1633C160.097 30.2679 160.013 30.4247 160.013 30.6337Z" fill="#999999"/>
<rect x="78" y="110" width="46" height="147" rx="10" fill="#F8EFE2"/>
<rect x="149" y="167" width="46" height="89" rx="10" fill="#F8EFE2"/>
<rect x="220" y="97" width="46" height="160" rx="10" fill="#F8EFE2"/>
<rect x="291" y="143" width="46" height="113" rx="10" fill="#F8EFE2"/>
<rect x="362" y="204" width="46" height="54" rx="10" fill="#F8EFE2"/>
<path d="M78 178H124V247C124 252.523 119.523 257 114 257H88C82.4772 257 78 252.523 78 247V178Z" fill="#FF9053"/>
<path d="M149 211H195V247C195 252.523 190.523 257 185 257H159C153.477 257 149 252.523 149 247V211Z" fill="#FF9053"/>
<path d="M220 120H266V247C266 252.523 261.523 257 256 257H230C224.477 257 220 252.523 220 247V120Z" fill="#FF9053"/>
<path d="M291 179H337V247C337 252.523 332.523 257 327 257H301C295.477 257 291 252.523 291 247V179Z" fill="#FF9053"/>
<path d="M362 225H408V249C408 254.523 403.523 259 398 259H372C366.477 259 362 254.523 362 249V225Z" fill="#FF9053"/>
<path d="M64 81H434" stroke="#E9E9E9" stroke-width="1.5" stroke-linecap="round" stroke-dasharray="9 10"/>
<path fill-rule="evenodd" clip-rule="evenodd" d="M291 87C287.686 87 285 89.6863 285 93V128C285 131.314 287.686 134 291 134H310.451C311.262 135.707 313.018 139 314.5 139C315.982 139 317.738 135.707 318.549 134H339C342.314 134 345 131.314 345 128V93C345 89.6863 342.314 87 339 87H291Z" fill="#1F1C3B"/>
<rect x="295" y="95" width="8" height="8" rx="2" fill="#FF9053"/>
<path d="M310.807 98.5601C311.494 98.5601 312.073 98.7646 312.544 99.1736C313.022 99.5756 313.261 100.134 313.261 100.848C313.261 101.555 313.019 102.113 312.533 102.522C312.048 102.931 311.459 103.135 310.766 103.135C310.211 103.135 309.716 103.003 309.279 102.74C308.842 102.47 308.537 102.082 308.364 101.575L309.185 101.108C309.282 101.461 309.47 101.731 309.747 101.919C310.024 102.099 310.364 102.189 310.766 102.189C311.223 102.189 311.594 102.071 311.878 101.835C312.163 101.6 312.305 101.27 312.305 100.848C312.305 100.425 312.163 100.096 311.878 99.8598C311.594 99.6172 311.23 99.4959 310.787 99.4959H308.728L308.998 95.7215H312.981V96.6261H309.872L309.747 98.5601H310.807ZM316.352 98.5601C317.038 98.5601 317.617 98.7646 318.088 99.1736C318.566 99.5756 318.806 100.134 318.806 100.848C318.806 101.555 318.563 102.113 318.078 102.522C317.592 102.931 317.003 103.135 316.31 103.135C315.755 103.135 315.26 103.003 314.823 102.74C314.386 102.47 314.081 102.082 313.908 101.575L314.73 101.108C314.827 101.461 315.014 101.731 315.291 101.919C315.568 102.099 315.908 102.189 316.31 102.189C316.768 102.189 317.138 102.071 317.423 101.835C317.707 101.6 317.849 101.27 317.849 100.848C317.849 100.425 317.707 100.096 317.423 99.8598C317.138 99.6172 316.774 99.4959 316.331 99.4959H314.272L314.542 95.7215H318.525V96.6261H315.416L315.291 98.5601H316.352ZM327.071 95.7215H328.028V103H327.071V99.7247H323.536V103H322.569V95.7215H323.536V98.8097H327.071V95.7215ZM330.397 98.6745C330.695 98.0298 331.236 97.7075 332.019 97.7075V98.6537C331.575 98.6329 331.194 98.7507 330.875 99.0072C330.556 99.2637 330.397 99.6761 330.397 100.245V103H329.492V97.8011H330.397V98.6745Z" fill="#E9E9E9"/>
<rect x="295" y="115" width="8" height="8" rx="2" fill="#F8EFE2"/>
<path d="M311.286 118.706C311.84 118.81 312.294 119.049 312.648 119.423C313.001 119.797 313.178 120.272 313.178 120.848C313.178 121.555 312.936 122.113 312.45 122.522C311.965 122.931 311.376 123.135 310.683 123.135C310.128 123.135 309.636 123.01 309.206 122.761C308.776 122.504 308.471 122.137 308.291 121.659L309.102 121.18C309.317 121.853 309.844 122.189 310.683 122.189C311.133 122.189 311.501 122.071 311.785 121.835C312.069 121.6 312.211 121.27 312.211 120.848C312.211 120.425 312.069 120.096 311.785 119.86C311.501 119.617 311.133 119.496 310.683 119.496H310.433L310.048 118.903L311.733 116.626H308.499V115.721H312.866V116.574L311.286 118.706ZM313.908 123V122.21L316.477 119.589C317.163 118.903 317.506 118.314 317.506 117.822C317.506 117.413 317.381 117.094 317.132 116.865C316.882 116.636 316.577 116.522 316.217 116.522C315.53 116.522 315.031 116.848 314.719 117.5L313.908 117.021C314.137 116.55 314.453 116.193 314.855 115.95C315.264 115.708 315.714 115.586 316.206 115.586C316.816 115.586 317.347 115.787 317.797 116.189C318.248 116.591 318.473 117.132 318.473 117.811C318.473 118.546 318.04 119.347 317.173 120.213L315.312 122.064H318.608V123H313.908ZM326.899 115.721H327.855V123H326.899V119.725H323.364V123H322.397V115.721H323.364V118.81H326.899V115.721ZM330.224 118.674C330.522 118.03 331.063 117.707 331.846 117.707V118.654C331.403 118.633 331.021 118.751 330.702 119.007C330.384 119.264 330.224 119.676 330.224 120.245V123H329.32V117.801H330.224V118.674Z" fill="#E9E9E9"/>
</svg>
