<svg width="429" height="112" viewBox="0 0 429 112" fill="none" xmlns="http://www.w3.org/2000/svg">
<rect y="0.11084" width="428.034" height="111.289" rx="28.5356" fill="white"/>
<mask id="mask0_7_24277" style="mask-type:luminance" maskUnits="userSpaceOnUse" x="0" y="0" width="429" height="112">
<rect y="0.11084" width="428.034" height="111.289" rx="28.5356" fill="white"/>
</mask>
<g mask="url(#mask0_7_24277)">
</g>
<g clip-path="url(#clip0_7_24277)">
<path d="M29.8807 28.76V49.5132H26.1212V32.4182H25.9996L21.1457 35.519V32.0736L26.3036 28.76H29.8807ZM34.7751 45.6625V42.6731L43.581 28.76H46.0738V33.016H44.5538L38.6258 42.4097V42.5718H50.9176V45.6625H34.7751ZM44.6754 49.5132V44.7505L44.716 43.4129V28.76H48.2626V49.5132H44.6754ZM57.9172 46.6758L57.7855 47.7905C57.6909 48.6417 57.522 49.5064 57.2788 50.3847C57.0424 51.2696 56.7924 52.0837 56.529 52.8268C56.2655 53.5699 56.0527 54.1543 55.8905 54.5799H53.418C53.5126 54.1678 53.6409 53.6071 53.8031 52.8977C53.972 52.1884 54.1341 51.3912 54.2895 50.5063C54.4449 49.6213 54.5496 48.7228 54.6036 47.8108L54.6745 46.6758H57.9172ZM61.9858 49.5132V46.7974L69.1906 39.7345C69.8797 39.0386 70.4539 38.4205 70.9133 37.8801C71.3727 37.3396 71.7172 36.816 71.9469 36.3094C72.1766 35.8027 72.2914 35.2623 72.2914 34.688C72.2914 34.0327 72.1428 33.472 71.8456 33.0059C71.5483 32.533 71.1396 32.1682 70.6194 31.9115C70.0992 31.6548 69.5081 31.5264 68.8461 31.5264C68.1638 31.5264 67.5659 31.6683 67.0525 31.952C66.539 32.229 66.1405 32.6242 65.8567 33.1376C65.5798 33.6511 65.4413 34.2624 65.4413 34.9718H61.8642C61.8642 33.6544 62.1648 32.5094 62.766 31.5366C63.3673 30.5638 64.1949 29.8105 65.2487 29.2768C66.3094 28.7431 67.5254 28.4763 68.8967 28.4763C70.2884 28.4763 71.5112 28.7364 72.565 29.2565C73.6189 29.7767 74.4363 30.4894 75.0173 31.3947C75.6051 32.2999 75.8989 33.3335 75.8989 34.4955C75.8989 35.2724 75.7503 36.0358 75.4531 36.7856C75.1558 37.5355 74.6322 38.3665 73.8824 39.2785C73.1393 40.1905 72.0955 41.295 70.7512 42.5921L67.1741 46.23V46.3718H76.2131V49.5132H61.9858ZM86.924 49.7969C85.5729 49.7969 84.3637 49.5436 83.2963 49.0369C82.2289 48.5235 81.3811 47.8209 80.7528 46.9292C80.1313 46.0374 79.8003 45.0173 79.7597 43.8689H83.4078C83.4753 44.7201 83.8435 45.4159 84.5123 45.9564C85.1811 46.4901 85.985 46.7569 86.924 46.7569C87.6604 46.7569 88.3157 46.588 88.8899 46.2502C89.4641 45.9125 89.9168 45.4429 90.2478 44.8417C90.5788 44.2404 90.741 43.5548 90.7342 42.7846C90.741 42.001 90.5754 41.3051 90.2377 40.6971C89.8999 40.0891 89.4371 39.6129 88.8494 39.2683C88.2617 38.917 87.5861 38.7414 86.8227 38.7414C86.2012 38.7346 85.5898 38.8495 84.9886 39.0859C84.3873 39.3224 83.9111 39.6331 83.5598 40.0182L80.1651 39.4609L81.2494 28.76H93.2878V31.9014H84.3603L83.7624 37.4038H83.884C84.2691 36.9512 84.8129 36.5762 85.5155 36.279C86.2181 35.975 86.9882 35.823 87.8259 35.823C89.0825 35.823 90.2039 36.1202 91.1902 36.7147C92.1765 37.3025 92.9534 38.1131 93.5209 39.1467C94.0884 40.1803 94.3721 41.3626 94.3721 42.6934C94.3721 44.0648 94.0546 45.2876 93.4195 46.3617C92.7913 47.4291 91.9164 48.2702 90.795 48.8849C89.6803 49.4929 88.39 49.7969 86.924 49.7969ZM97.3918 45.6625V42.6731L106.198 28.76H108.691V33.016H107.171L101.243 42.4097V42.5718H113.534V45.6625H97.3918ZM107.292 49.5132V44.7505L107.333 43.4129V28.76H110.879V49.5132H107.292Z" fill="#171725"/>
<path d="M134.183 33.1197V47.647H131.552V35.6805H131.466L128.069 37.851V35.4393L131.679 33.1197H134.183ZM138.807 47.803C138.377 47.803 138.008 47.6517 137.7 47.3491C137.393 47.0464 137.242 46.6775 137.246 46.2425C137.242 45.8169 137.393 45.4528 137.7 45.1501C138.008 44.8475 138.377 44.6961 138.807 44.6961C139.223 44.6961 139.585 44.8475 139.892 45.1501C140.204 45.4528 140.363 45.8169 140.368 46.2425C140.363 46.5309 140.287 46.7934 140.141 47.0298C139.999 47.2663 139.81 47.4555 139.573 47.5973C139.341 47.7345 139.086 47.803 138.807 47.803ZM147.99 47.8456C147.044 47.8456 146.198 47.6683 145.451 47.3136C144.703 46.9542 144.11 46.4624 143.67 45.8382C143.235 45.2139 143.003 44.4999 142.975 43.696H145.529C145.576 44.2918 145.834 44.7789 146.302 45.1572C146.77 45.5308 147.333 45.7176 147.99 45.7176C148.506 45.7176 148.964 45.5994 149.366 45.3629C149.768 45.1265 150.085 44.7978 150.317 44.3769C150.548 43.9561 150.662 43.4761 150.657 42.937C150.662 42.3884 150.546 41.9013 150.31 41.4757C150.073 41.0501 149.749 40.7167 149.338 40.4756C148.926 40.2297 148.453 40.1067 147.919 40.1067C147.484 40.102 147.056 40.1824 146.635 40.3479C146.214 40.5134 145.881 40.7309 145.635 41.0005L143.259 40.6103L144.018 33.1197H152.445V35.3187H146.195L145.777 39.1704H145.862C146.132 38.8536 146.512 38.5911 147.004 38.383C147.496 38.1702 148.035 38.0638 148.621 38.0638C149.501 38.0638 150.286 38.2719 150.976 38.688C151.667 39.0995 152.211 39.6669 152.608 40.3905C153.005 41.114 153.204 41.9415 153.204 42.8731C153.204 43.8331 152.981 44.689 152.537 45.4409C152.097 46.1881 151.485 46.7769 150.7 47.2072C149.919 47.6328 149.016 47.8456 147.99 47.8456ZM163.472 44.9231V44.157C163.472 43.5943 163.59 43.0765 163.827 42.6036C164.068 42.1307 164.418 41.75 164.877 41.4616C165.335 41.1731 165.891 41.0289 166.543 41.0289C167.215 41.0289 167.778 41.1731 168.232 41.4616C168.686 41.7453 169.029 42.1236 169.26 42.5965C169.497 43.0694 169.615 43.5896 169.615 44.157V44.9231C169.615 45.4859 169.497 46.0037 169.26 46.4766C169.024 46.9495 168.676 47.3301 168.218 47.6186C167.764 47.9071 167.206 48.0513 166.543 48.0513C165.881 48.0513 165.321 47.9071 164.862 47.6186C164.404 47.3301 164.056 46.9495 163.82 46.4766C163.588 46.0037 163.472 45.4859 163.472 44.9231ZM165.323 44.157V44.9231C165.323 45.2967 165.413 45.6395 165.593 45.9517C165.773 46.2638 166.09 46.4198 166.543 46.4198C167.002 46.4198 167.317 46.2661 167.487 45.9588C167.662 45.6466 167.749 45.3014 167.749 44.9231V44.157C167.749 43.7787 167.667 43.4335 167.501 43.1214C167.336 42.8046 167.016 42.6461 166.543 42.6461C166.099 42.6461 165.784 42.8046 165.6 43.1214C165.416 43.4335 165.323 43.7787 165.323 44.157ZM156.088 36.6097V35.8436C156.088 35.2761 156.208 34.756 156.45 34.2831C156.691 33.8102 157.041 33.4319 157.499 33.1481C157.958 32.8597 158.514 32.7154 159.166 32.7154C159.833 32.7154 160.394 32.8597 160.848 33.1481C161.306 33.4319 161.651 33.8102 161.883 34.2831C162.115 34.756 162.231 35.2761 162.231 35.8436V36.6097C162.231 37.1772 162.112 37.6973 161.876 38.1702C161.644 38.6384 161.299 39.0143 160.84 39.2981C160.382 39.5818 159.824 39.7237 159.166 39.7237C158.5 39.7237 157.937 39.5818 157.478 39.2981C157.024 39.0143 156.679 38.636 156.443 38.1631C156.206 37.6902 156.088 37.1724 156.088 36.6097ZM157.953 35.8436V36.6097C157.953 36.988 158.041 37.3332 158.216 37.6453C158.396 37.9527 158.712 38.1064 159.166 38.1064C159.62 38.1064 159.932 37.9527 160.103 37.6453C160.278 37.3332 160.365 36.988 160.365 36.6097V35.8436C160.365 35.4653 160.282 35.1201 160.117 34.808C159.951 34.4911 159.635 34.3327 159.166 34.3327C158.717 34.3327 158.403 34.4911 158.223 34.808C158.043 35.1248 157.953 35.47 157.953 35.8436ZM156.896 47.647L166.884 33.1197H168.657L158.67 47.647H156.896Z" fill="#FC5A5A"/>
<path d="M182.624 49.3352C182.426 49.3361 182.227 49.2548 182.084 49.0912L177.097 43.384C176.838 43.0874 176.868 42.6367 177.165 42.3774C177.461 42.1182 177.912 42.1486 178.171 42.4453L181.915 46.7292V37.2075C181.915 36.8135 182.234 36.4941 182.628 36.4941C183.022 36.4941 183.341 36.8135 183.341 37.2075V46.717L187.085 42.4445C187.345 42.1482 187.795 42.1184 188.092 42.3781C188.388 42.6378 188.418 43.0885 188.158 43.3848L183.218 49.0224C183.09 49.2112 182.873 49.3352 182.628 49.3352L182.624 49.3352Z" fill="#FC5A5A"/>
<path d="M23.4203 74.5715L27.117 85.0535H27.2629L30.9595 74.5715H32.5404L27.9682 87.0234H26.4117L21.8395 74.5715H23.4203ZM34.4076 87.0234V77.6845H35.8425V87.0234H34.4076ZM35.1372 76.128C34.8575 76.128 34.6164 76.0328 34.4137 75.8423C34.2151 75.6518 34.1158 75.4227 34.1158 75.1552C34.1158 74.8877 34.2151 74.6587 34.4137 74.4682C34.6164 74.2777 34.8575 74.1824 35.1372 74.1824C35.4169 74.1824 35.6561 74.2777 35.8547 74.4682C36.0573 74.6587 36.1587 74.8877 36.1587 75.1552C36.1587 75.4227 36.0573 75.6518 35.8547 75.8423C35.6561 76.0328 35.4169 76.128 35.1372 76.128ZM45.208 79.776L43.919 80.1408C43.8379 79.926 43.7184 79.7173 43.5603 79.5146C43.4063 79.3079 43.1955 79.1376 42.928 79.0039C42.6604 78.8701 42.3179 78.8032 41.9004 78.8032C41.3289 78.8032 40.8526 78.935 40.4716 79.1984C40.0947 79.4579 39.9062 79.7882 39.9062 80.1895C39.9062 80.5462 40.0359 80.8279 40.2953 81.0346C40.5547 81.2413 40.9601 81.4136 41.5113 81.5514L42.8976 81.8919C43.7325 82.0946 44.3547 82.4046 44.7641 82.8221C45.1735 83.2356 45.3782 83.7686 45.3782 84.4212C45.3782 84.9562 45.2242 85.4345 44.9161 85.8561C44.6121 86.2776 44.1865 86.61 43.6393 86.8532C43.0921 87.0964 42.4557 87.218 41.7302 87.218C40.7777 87.218 39.9893 87.0113 39.3651 86.5978C38.7408 86.1844 38.3456 85.5804 38.1795 84.786L39.5414 84.4455C39.6711 84.9481 39.9163 85.3251 40.2771 85.5764C40.6419 85.8277 41.1181 85.9534 41.7059 85.9534C42.3747 85.9534 42.9057 85.8115 43.2988 85.5277C43.6961 85.24 43.8947 84.8954 43.8947 84.4941C43.8947 84.1699 43.7812 83.8983 43.5542 83.6794C43.3272 83.4565 42.9786 83.2903 42.5084 83.1809L40.9519 82.8161C40.0967 82.6134 39.4684 82.2993 39.0671 81.8737C38.6699 81.444 38.4713 80.9069 38.4713 80.2624C38.4713 79.7355 38.6192 79.2694 38.9151 78.864C39.2151 78.4587 39.6224 78.1405 40.1372 77.9095C40.6561 77.6784 41.2438 77.5629 41.9004 77.5629C42.8246 77.5629 43.5501 77.7656 44.0771 78.1709C44.6081 78.5762 44.985 79.1113 45.208 79.776ZM47.6604 87.0234V77.6845H49.0953V87.0234H47.6604ZM48.39 76.128C48.1104 76.128 47.8692 76.0328 47.6665 75.8423C47.4679 75.6518 47.3686 75.4227 47.3686 75.1552C47.3686 74.8877 47.4679 74.6587 47.6665 74.4682C47.8692 74.2777 48.1104 74.1824 48.39 74.1824C48.6697 74.1824 48.9089 74.2777 49.1075 74.4682C49.3102 74.6587 49.4115 74.8877 49.4115 75.1552C49.4115 75.4227 49.3102 75.6518 49.1075 75.8423C48.9089 76.0328 48.6697 76.128 48.39 76.128ZM55.9072 77.6845V78.9005H51.0675V77.6845H55.9072ZM52.478 75.4471H53.9129V84.3482C53.9129 84.7536 53.9717 85.0576 54.0892 85.2602C54.2108 85.4588 54.3649 85.5926 54.5513 85.6615C54.7418 85.7264 54.9425 85.7588 55.1533 85.7588C55.3113 85.7588 55.441 85.7507 55.5424 85.7345C55.6437 85.7142 55.7248 85.698 55.7856 85.6858L56.0774 86.9748C55.9801 87.0113 55.8443 87.0478 55.6701 87.0842C55.4958 87.1248 55.2749 87.145 55.0073 87.145C54.602 87.145 54.2048 87.0579 53.8156 86.8836C53.4306 86.7093 53.1104 86.4438 52.855 86.0871C52.6037 85.7304 52.478 85.2805 52.478 84.7373V75.4471ZM61.8815 87.218C61.0384 87.218 60.2987 87.0174 59.6623 86.6161C59.03 86.2148 58.5355 85.6534 58.1788 84.9319C57.8261 84.2104 57.6498 83.3673 57.6498 82.4026C57.6498 81.4298 57.8261 80.5806 58.1788 79.8551C58.5355 79.1295 59.03 78.5661 59.6623 78.1648C60.2987 77.7635 61.0384 77.5629 61.8815 77.5629C62.7246 77.5629 63.4623 77.7635 64.0946 78.1648C64.731 78.5661 65.2255 79.1295 65.5782 79.8551C65.9349 80.5806 66.1132 81.4298 66.1132 82.4026C66.1132 83.3673 65.9349 84.2104 65.5782 84.9319C65.2255 85.6534 64.731 86.2148 64.0946 86.6161C63.4623 87.0174 62.7246 87.218 61.8815 87.218ZM61.8815 85.929C62.5219 85.929 63.0489 85.7649 63.4623 85.4365C63.8758 85.1082 64.1818 84.6765 64.3804 84.1415C64.579 83.6065 64.6783 83.0268 64.6783 82.4026C64.6783 81.7784 64.579 81.1967 64.3804 80.6576C64.1818 80.1185 63.8758 79.6828 63.4623 79.3504C63.0489 79.0181 62.5219 78.8519 61.8815 78.8519C61.2411 78.8519 60.7141 79.0181 60.3007 79.3504C59.8873 79.6828 59.5812 80.1185 59.3826 80.6576C59.184 81.1967 59.0847 81.7784 59.0847 82.4026C59.0847 83.0268 59.184 83.6065 59.3826 84.1415C59.5812 84.6765 59.8873 85.1082 60.3007 85.4365C60.7141 85.7649 61.2411 85.929 61.8815 85.929ZM68.4258 87.0234V77.6845H69.8121V79.0951H69.9094C70.0796 78.633 70.3877 78.2581 70.8335 77.9703C71.2794 77.6825 71.782 77.5386 72.3414 77.5386C72.4468 77.5386 72.5785 77.5406 72.7366 77.5447C72.8947 77.5487 73.0142 77.5548 73.0953 77.5629V79.0221C73.0467 79.01 72.9352 78.9917 72.7609 78.9674C72.5907 78.939 72.4103 78.9248 72.2198 78.9248C71.7658 78.9248 71.3605 79.0201 71.0038 79.2106C70.6511 79.3971 70.3714 79.6565 70.1647 79.9888C69.9621 80.3172 69.8607 80.6921 69.8607 81.1136V87.0234H68.4258ZM81.5336 79.776L80.2446 80.1408C80.1635 79.926 80.0439 79.7173 79.8859 79.5146C79.7318 79.3079 79.5211 79.1376 79.2535 79.0039C78.986 78.8701 78.6435 78.8032 78.226 78.8032C77.6545 78.8032 77.1782 78.935 76.7972 79.1984C76.4202 79.4579 76.2318 79.7882 76.2318 80.1895C76.2318 80.5462 76.3615 80.8279 76.6209 81.0346C76.8803 81.2413 77.2856 81.4136 77.8369 81.5514L79.2231 81.8919C80.0581 82.0946 80.6803 82.4046 81.0897 82.8221C81.4991 83.2356 81.7038 83.7686 81.7038 84.4212C81.7038 84.9562 81.5498 85.4345 81.2417 85.8561C80.9377 86.2776 80.5121 86.61 79.9649 86.8532C79.4177 87.0964 78.7813 87.218 78.0558 87.218C77.1032 87.218 76.3149 87.0113 75.6906 86.5978C75.0664 86.1844 74.6712 85.5804 74.505 84.786L75.867 84.4455C75.9967 84.9481 76.2419 85.3251 76.6027 85.5764C76.9675 85.8277 77.4437 85.9534 78.0315 85.9534C78.7003 85.9534 79.2313 85.8115 79.6244 85.5277C80.0217 85.24 80.2203 84.8954 80.2203 84.4941C80.2203 84.1699 80.1068 83.8983 79.8798 83.6794C79.6528 83.4565 79.3042 83.2903 78.834 83.1809L77.2775 82.8161C76.4223 82.6134 75.794 82.2993 75.3927 81.8737C74.9955 81.444 74.7969 80.9069 74.7969 80.2624C74.7969 79.7355 74.9448 79.2694 75.2407 78.864C75.5407 78.4587 75.948 78.1405 76.4628 77.9095C76.9816 77.6784 77.5694 77.5629 78.226 77.5629C79.1502 77.5629 79.8757 77.7656 80.4027 78.1709C80.9337 78.5762 81.3106 79.1113 81.5336 79.776ZM92.9852 77.6845V78.9005H88.1455V77.6845H92.9852ZM89.556 75.4471H90.9909V84.3482C90.9909 84.7536 91.0497 85.0576 91.1672 85.2602C91.2888 85.4588 91.4429 85.5926 91.6293 85.6615C91.8198 85.7264 92.0205 85.7588 92.2312 85.7588C92.3893 85.7588 92.519 85.7507 92.6204 85.7345C92.7217 85.7142 92.8028 85.698 92.8636 85.6858L93.1554 86.9748C93.0581 87.0113 92.9223 87.0478 92.748 87.0842C92.5738 87.1248 92.3528 87.145 92.0853 87.145C91.68 87.145 91.2828 87.0579 90.8936 86.8836C90.5086 86.7093 90.1884 86.4438 89.933 86.0871C89.6817 85.7304 89.556 85.2805 89.556 84.7373V75.4471ZM96.9014 81.4055V87.0234H95.4665V74.5715H96.9014V79.1437H97.023C97.2419 78.6614 97.5702 78.2783 98.008 77.9946C98.4498 77.7068 99.0375 77.5629 99.7712 77.5629C100.408 77.5629 100.965 77.6906 101.443 77.9459C101.921 78.1973 102.292 78.5844 102.556 79.1072C102.823 79.6261 102.957 80.2868 102.957 81.0893V87.0234H101.522V81.1866C101.522 80.4448 101.33 79.8713 100.945 79.466C100.564 79.0566 100.035 78.8519 99.3577 78.8519C98.8875 78.8519 98.466 78.9512 98.0931 79.1498C97.7242 79.3484 97.4324 79.6382 97.2176 80.0192C97.0068 80.4003 96.9014 80.8623 96.9014 81.4055ZM105.704 87.0234V77.6845H107.139V87.0234H105.704ZM106.434 76.128C106.154 76.128 105.913 76.0328 105.711 75.8423C105.512 75.6518 105.413 75.4227 105.413 75.1552C105.413 74.8877 105.512 74.6587 105.711 74.4682C105.913 74.2777 106.154 74.1824 106.434 74.1824C106.714 74.1824 106.953 74.2777 107.152 74.4682C107.354 74.6587 107.456 74.8877 107.456 75.1552C107.456 75.4227 107.354 75.6518 107.152 75.8423C106.953 76.0328 106.714 76.128 106.434 76.128ZM116.505 79.776L115.216 80.1408C115.135 79.926 115.015 79.7173 114.857 79.5146C114.703 79.3079 114.492 79.1376 114.225 79.0039C113.957 78.8701 113.615 78.8032 113.197 78.8032C112.626 78.8032 112.149 78.935 111.768 79.1984C111.392 79.4579 111.203 79.7882 111.203 80.1895C111.203 80.5462 111.333 80.8279 111.592 81.0346C111.852 81.2413 112.257 81.4136 112.808 81.5514L114.194 81.8919C115.029 82.0946 115.652 82.4046 116.061 82.8221C116.47 83.2356 116.675 83.7686 116.675 84.4212C116.675 84.9562 116.521 85.4345 116.213 85.8561C115.909 86.2776 115.483 86.61 114.936 86.8532C114.389 87.0964 113.753 87.218 113.027 87.218C112.074 87.218 111.286 87.0113 110.662 86.5978C110.038 86.1844 109.642 85.5804 109.476 84.786L110.838 84.4455C110.968 84.9481 111.213 85.3251 111.574 85.5764C111.939 85.8277 112.415 85.9534 113.003 85.9534C113.672 85.9534 114.203 85.8115 114.596 85.5277C114.993 85.24 115.192 84.8954 115.192 84.4941C115.192 84.1699 115.078 83.8983 114.851 83.6794C114.624 83.4565 114.275 83.2903 113.805 83.1809L112.249 82.8161C111.394 82.6134 110.765 82.2993 110.364 81.8737C109.967 81.444 109.768 80.9069 109.768 80.2624C109.768 79.7355 109.916 79.2694 110.212 78.864C110.512 78.4587 110.919 78.1405 111.434 77.9095C111.953 77.6784 112.541 77.5629 113.197 77.5629C114.121 77.5629 114.847 77.7656 115.374 78.1709C115.905 78.5762 116.282 79.1113 116.505 79.776ZM124.819 90.5255C124.576 90.5255 124.359 90.5053 124.169 90.4647C123.978 90.4283 123.846 90.3918 123.773 90.3553L124.138 89.0906C124.487 89.1798 124.795 89.2122 125.062 89.1879C125.33 89.1636 125.567 89.044 125.774 88.8292C125.984 88.6184 126.177 88.2759 126.351 87.8017L126.619 87.0721L123.165 77.6845H124.722L127.3 85.1265H127.397L129.975 77.6845H131.531L127.567 88.3854C127.389 88.8677 127.168 89.267 126.905 89.5831C126.641 89.9033 126.335 90.1405 125.986 90.2945C125.642 90.4485 125.253 90.5255 124.819 90.5255ZM137.129 87.218C136.229 87.218 135.453 87.0194 134.8 86.6222C134.152 86.2209 133.651 85.6615 133.298 84.9441C132.95 84.2226 132.776 83.3835 132.776 82.4269C132.776 81.4703 132.95 80.6272 133.298 79.8976C133.651 79.164 134.142 78.5925 134.77 78.1831C135.402 77.7696 136.14 77.5629 136.983 77.5629C137.469 77.5629 137.95 77.644 138.424 77.8061C138.898 77.9682 139.33 78.2317 139.719 78.5965C140.108 78.9573 140.418 79.4356 140.649 80.0314C140.88 80.6272 140.996 81.3609 140.996 82.2324V82.8404H133.797V81.6H139.537C139.537 81.0731 139.431 80.6029 139.22 80.1895C139.014 79.776 138.718 79.4497 138.333 79.2106C137.952 78.9714 137.502 78.8519 136.983 78.8519C136.411 78.8519 135.917 78.9937 135.499 79.2775C135.086 79.5572 134.768 79.922 134.545 80.3719C134.322 80.8218 134.21 81.3042 134.21 81.8189V82.6458C134.21 83.3511 134.332 83.949 134.575 84.4394C134.822 84.9258 135.165 85.2967 135.603 85.5521C136.041 85.8034 136.549 85.929 137.129 85.929C137.506 85.929 137.846 85.8763 138.15 85.771C138.458 85.6615 138.724 85.4994 138.947 85.2845C139.17 85.0657 139.342 84.7941 139.464 84.4698L140.85 84.8589C140.704 85.3291 140.459 85.7426 140.114 86.0993C139.77 86.4519 139.344 86.7275 138.837 86.9262C138.331 87.1207 137.761 87.218 137.129 87.218ZM146.049 87.2423C145.457 87.2423 144.92 87.1309 144.438 86.9079C143.955 86.6809 143.572 86.3546 143.289 85.929C143.005 85.4994 142.863 84.9805 142.863 84.3725C142.863 83.8375 142.968 83.4038 143.179 83.0714C143.39 82.735 143.672 82.4715 144.024 82.281C144.377 82.0905 144.766 81.9486 145.192 81.8554C145.621 81.7581 146.053 81.6811 146.487 81.6244C147.054 81.5514 147.514 81.4967 147.867 81.4602C148.224 81.4197 148.483 81.3528 148.645 81.2596C148.811 81.1663 148.894 81.0042 148.894 80.7732V80.7245C148.894 80.1246 148.73 79.6585 148.402 79.3261C148.078 78.9937 147.585 78.8276 146.924 78.8276C146.239 78.8276 145.702 78.9775 145.313 79.2775C144.924 79.5774 144.651 79.8976 144.492 80.2381L143.131 79.7517C143.374 79.1842 143.698 78.7424 144.103 78.4263C144.513 78.1061 144.959 77.8831 145.441 77.7575C145.927 77.6278 146.406 77.5629 146.876 77.5629C147.176 77.5629 147.52 77.5994 147.909 77.6723C148.303 77.7413 148.682 77.8851 149.046 78.104C149.415 78.3229 149.721 78.6533 149.964 79.0951C150.208 79.5369 150.329 80.1287 150.329 80.8704V87.0234H148.894V85.7588H148.821C148.724 85.9615 148.562 86.1783 148.335 86.4094C148.108 86.6404 147.806 86.837 147.429 86.9991C147.052 87.1613 146.592 87.2423 146.049 87.2423ZM146.268 85.9534C146.835 85.9534 147.314 85.8419 147.703 85.619C148.096 85.396 148.392 85.1082 148.59 84.7556C148.793 84.4029 148.894 84.0321 148.894 83.6429V82.3297C148.834 82.4026 148.7 82.4695 148.493 82.5303C148.29 82.587 148.055 82.6377 147.788 82.6823C147.524 82.7228 147.267 82.7593 147.016 82.7917C146.768 82.8201 146.568 82.8444 146.414 82.8647C146.041 82.9133 145.692 82.9924 145.368 83.1018C145.048 83.2072 144.788 83.3673 144.59 83.5821C144.395 83.7929 144.298 84.0807 144.298 84.4455C144.298 84.9441 144.482 85.321 144.851 85.5764C145.224 85.8277 145.696 85.9534 146.268 85.9534ZM153.071 87.0234V77.6845H154.457V79.0951H154.554C154.724 78.633 155.032 78.2581 155.478 77.9703C155.924 77.6825 156.427 77.5386 156.986 77.5386C157.091 77.5386 157.223 77.5406 157.381 77.5447C157.539 77.5487 157.659 77.5548 157.74 77.5629V79.0221C157.691 79.01 157.58 78.9917 157.406 78.9674C157.235 78.939 157.055 78.9248 156.865 78.9248C156.411 78.9248 156.005 79.0201 155.648 79.2106C155.296 79.3971 155.016 79.6565 154.809 79.9888C154.607 80.3172 154.505 80.6921 154.505 81.1136V87.0234H153.071Z" fill="#696974"/>
</g>
<path d="M253.967 55.7188C253.967 55.7188 259.422 54.5119 265.625 57.4113C277.422 62.9256 278.095 52.8275 282.47 47.9585C286.472 43.5038 289.786 46.2218 294.242 51.6695C297.529 55.6874 302.319 62.4319 307.279 61.3461C311.813 60.3536 315.027 52.4432 321.312 50.4315C326.294 48.8371 330.342 53.2174 336.078 51.6695C343.859 49.5696 345.018 41.526 350.579 41.526C357.443 41.526 361.742 55.8792 367.986 55.8792C374.193 55.8792 377.386 41.6901 384.176 45.9975C389.367 49.2905 392.365 37.2075 392.365 37.2075" stroke="#0062FF" stroke-width="4.28034" stroke-linecap="round" stroke-linejoin="round"/>
<g filter="url(#filter0_d_7_24277)">
<rect x="343.854" y="37.2075" width="14.2678" height="14.2678" rx="7.1339" fill="#0062FF"/>
<rect x="344.924" y="38.2776" width="12.1276" height="12.1276" rx="6.06382" stroke="white" stroke-width="2.14017"/>
</g>
<defs>
<filter id="filter0_d_7_24277" x="341.001" y="35.7807" width="19.9749" height="19.9747" filterUnits="userSpaceOnUse" color-interpolation-filters="sRGB">
<feFlood flood-opacity="0" result="BackgroundImageFix"/>
<feColorMatrix in="SourceAlpha" type="matrix" values="0 0 0 0 0 0 0 0 0 0 0 0 0 0 0 0 0 0 127 0" result="hardAlpha"/>
<feOffset dy="1.42678"/>
<feGaussianBlur stdDeviation="1.42678"/>
<feColorMatrix type="matrix" values="0 0 0 0 0.268354 0 0 0 0 0.268354 0 0 0 0 0.31049 0 0 0 0.15 0"/>
<feBlend mode="normal" in2="BackgroundImageFix" result="effect1_dropShadow_7_24277"/>
<feBlend mode="normal" in="SourceGraphic" in2="effect1_dropShadow_7_24277" result="shape"/>
</filter>
<clipPath id="clip0_7_24277">
<rect width="169.787" height="68.4855" fill="white" transform="translate(21.4017 21.5132)"/>
</clipPath>
</defs>
</svg>
